<svg xmlns="http://www.w3.org/2000/svg" xmlns:xlink="http://www.w3.org/1999/xlink" width="500" zoomAndPan="magnify" viewBox="0 0 375 374.999991" height="500" preserveAspectRatio="xMidYMid meet" version="1.0"><defs><clipPath id="cfcec662d0"><path d="M 12.890625 0 L 362 0 L 362 368 L 12.890625 368 Z M 12.890625 0 " clip-rule="nonzero"/></clipPath></defs><path fill="#ffffff" d="M 361.246094 352.089844 C 359.875 353.152344 358.425781 354.082031 356.917969 354.890625 C 347.179688 360.191406 335.015625 360.84375 323.660156 361.195312 C 314.300781 361.484375 304.957031 361.773438 295.601562 362.0625 C 294.058594 362.109375 292.535156 362.15625 290.996094 362.199219 C 216.160156 364.515625 141.304688 366.832031 66.480469 369.128906 C 65.09375 369.175781 63.722656 369.222656 62.335938 369.265625 C 58.007812 369.40625 53.695312 369.527344 49.363281 369.664062 C 38.710938 370 26.578125 369.570312 17.769531 364.5625 C 16.335938 363.753906 14.992188 362.824219 13.757812 361.742188 C 14.398438 359.488281 15.191406 357.265625 15.710938 354.996094 C 17.601562 348.554688 19.171875 342.019531 21.394531 335.6875 C 23.804688 328.984375 26.820312 322.511719 29.09375 315.765625 C 31.988281 306.246094 36.882812 298.113281 44.03125 291.152344 C 50.476562 285.472656 58.585938 282.304688 66.527344 279.351562 C 79.285156 274.886719 92.546875 272.207031 105.625 268.902344 C 113.078125 267.226562 120.636719 265.980469 127.90625 263.601562 C 136.351562 260.878906 146.792969 256.964844 150.601562 252.058594 C 152.539062 248.9375 151.929688 242.875 151.152344 237.636719 C 147.386719 238.152344 143.589844 238.382812 139.796875 238.03125 C 133.652344 237.226562 127.542969 235.609375 121.855469 233.113281 C 118.488281 231.238281 115.378906 228.894531 112.558594 226.273438 C 103.167969 215.660156 94.785156 203.582031 91.160156 189.707031 C 90.167969 184.820312 90.105469 179.792969 90.257812 174.8125 C 89.527344 174.628906 88.933594 174.035156 88.550781 173.382812 C 87.59375 171.980469 86.785156 170.488281 86.007812 168.996094 C 81.449219 160.34375 78.964844 150.398438 79.347656 140.59375 C 76.769531 138.324219 74.621094 135.613281 72.761719 132.734375 C 70.003906 128.726562 67.546875 124.496094 66.101562 119.835938 C 63.28125 110.695312 61.375 101.101562 62.550781 91.523438 C 62.59375 90.972656 62.65625 90.441406 62.703125 89.90625 C 61.910156 89.023438 61.300781 87.957031 60.871094 86.875 C 58.585938 80.585938 61.175781 73.839844 63.1875 67.808594 C 73.601562 38.980469 97.972656 16.5625 126.488281 6.007812 C 133.289062 3.113281 140.511719 1.757812 147.84375 1.132812 C 156.652344 0.0078125 165.539062 0.371094 174.289062 1.941406 C 180.445312 3.417969 186.511719 5.640625 192.105469 8.625 C 195.335938 10.105469 198.597656 12.859375 199.164062 12.371094 C 212.578125 10.285156 232.710938 13.195312 245.558594 22.882812 C 251.183594 26.796875 255.636719 32.09375 258.257812 38.460938 C 261.320312 44.980469 263.742188 51.800781 265.3125 58.855469 C 266.394531 63.988281 269.582031 70.125 265.511719 74.722656 C 264.414062 75.925781 262.921875 76.65625 261.441406 77.3125 C 261.59375 78.316406 261.976562 80.128906 262.113281 81.699219 C 262.859375 92.238281 262.707031 103.082031 259.765625 113.285156 C 259.171875 115.464844 258.5 117.625 257.816406 119.789062 C 257.679688 120.335938 257.496094 120.945312 257.21875 121.492188 C 260.984375 126.367188 262.328125 132.855469 261.746094 139.007812 C 261 152.378906 252.722656 164.089844 242.816406 172.589844 C 239.722656 175.132812 236.246094 177.1875 232.710938 179.046875 C 231.523438 179.734375 230.164062 180.328125 228.761719 180.738281 C 229.527344 190.011719 230.410156 196.757812 232.222656 205.941406 C 234.023438 213.816406 236.066406 221.644531 238.0625 229.472656 C 239.417969 235.167969 240.132812 238.199219 243.152344 241.0625 C 246.597656 244.734375 252.238281 246.058594 258.835938 248.449219 C 260.207031 248.953125 261.578125 249.425781 262.953125 249.910156 C 263.621094 249.789062 264.324219 249.972656 264.902344 250.613281 C 274.550781 254.007812 284.304688 257.160156 294.152344 259.976562 C 306.039062 263.878906 318.691406 266.117188 329.695312 272.285156 C 333.1875 274.445312 336.648438 276.714844 339.605469 279.59375 C 343.0625 282.960938 345.867188 286.949219 348.628906 290.894531 C 352.300781 296.621094 354.097656 303.351562 355.332031 309.976562 C 357.621094 321.964844 359.402344 334.039062 360.59375 346.179688 C 360.820312 348.144531 361.050781 350.109375 361.246094 352.089844 Z M 361.246094 352.089844 " fill-opacity="1" fill-rule="nonzero"/><path fill="#000000" d="M 91.601562 123.597656 C 91.570312 123.824219 91.570312 123.914062 91.601562 123.597656 Z M 91.601562 123.597656 " fill-opacity="1" fill-rule="nonzero"/><path fill="#000000" d="M 203.25 16.5 C 203.21875 16.5 203.21875 16.5 203.1875 16.5 C 203.066406 16.515625 202.945312 16.53125 202.820312 16.546875 C 202.730469 16.589844 202.851562 16.605469 203.25 16.5 Z M 203.25 16.5 " fill-opacity="1" fill-rule="nonzero"/><g clip-path="url(#cfcec662d0)"><path fill="#000000" d="M 361.476562 354.738281 C 361.398438 353.855469 361.324219 352.972656 361.246094 352.089844 C 361.050781 350.109375 360.820312 348.144531 360.59375 346.179688 C 359.402344 334.039062 357.621094 321.964844 355.332031 309.976562 C 354.097656 303.351562 352.300781 296.621094 348.628906 290.894531 C 345.867188 286.949219 343.0625 282.960938 339.605469 279.59375 C 336.648438 276.714844 333.1875 274.445312 329.695312 272.285156 C 318.691406 266.117188 306.039062 263.878906 294.152344 259.976562 C 284.304688 257.160156 274.550781 254.007812 264.902344 250.613281 C 264.324219 249.972656 263.621094 249.789062 262.953125 249.910156 C 261.578125 249.425781 260.207031 248.953125 258.835938 248.449219 C 252.238281 246.058594 246.597656 244.734375 243.152344 241.0625 C 240.132812 238.199219 239.417969 235.167969 238.0625 229.472656 C 236.066406 221.644531 234.023438 213.816406 232.222656 205.941406 C 230.410156 196.757812 229.527344 190.011719 228.765625 180.738281 C 230.164062 180.328125 231.523438 179.734375 232.710938 179.046875 C 236.246094 177.1875 239.722656 175.132812 242.816406 172.589844 C 252.722656 164.089844 261 152.378906 261.746094 139.007812 C 262.328125 132.855469 260.984375 126.367188 257.21875 121.492188 C 257.496094 120.945312 257.679688 120.335938 257.816406 119.789062 C 258.5 117.625 259.171875 115.464844 259.765625 113.285156 C 262.707031 103.082031 262.859375 92.238281 262.113281 81.699219 C 261.976562 80.128906 261.59375 78.316406 261.441406 77.3125 C 262.921875 76.65625 264.414062 75.925781 265.511719 74.722656 C 269.582031 70.125 266.394531 63.988281 265.3125 58.855469 C 263.742188 51.800781 261.320312 44.980469 258.257812 38.460938 C 255.636719 32.09375 251.183594 26.796875 245.558594 22.882812 C 232.710938 13.195312 212.578125 10.285156 199.164062 12.371094 C 198.601562 12.859375 195.335938 10.105469 192.105469 8.625 C 186.511719 5.640625 180.445312 3.417969 174.289062 1.941406 C 165.539062 0.371094 156.652344 0.0078125 147.84375 1.132812 C 140.511719 1.757812 133.289062 3.113281 126.488281 6.007812 C 97.972656 16.5625 73.601562 38.980469 63.1875 67.808594 C 61.175781 73.839844 58.585938 80.585938 60.871094 86.875 C 61.300781 87.957031 61.910156 89.023438 62.703125 89.90625 C 62.65625 90.441406 62.59375 90.972656 62.550781 91.523438 C 61.375 101.101562 63.28125 110.695312 66.101562 119.835938 C 67.546875 124.496094 70.003906 128.726562 72.761719 132.734375 C 74.621094 135.613281 76.769531 138.324219 79.347656 140.59375 C 78.964844 150.398438 81.449219 160.34375 86.007812 168.996094 C 86.785156 170.488281 87.59375 171.980469 88.550781 173.382812 C 88.933594 174.035156 89.527344 174.628906 90.257812 174.8125 C 90.105469 179.792969 90.167969 184.820312 91.160156 189.707031 C 94.785156 203.582031 103.167969 215.660156 112.558594 226.273438 C 115.378906 228.894531 118.488281 231.238281 121.855469 233.113281 C 127.542969 235.609375 133.652344 237.226562 139.796875 238.03125 C 143.589844 238.382812 147.386719 238.152344 151.152344 237.636719 C 151.929688 242.875 152.539062 248.9375 150.601562 252.058594 C 146.792969 256.964844 136.351562 260.878906 127.90625 263.601562 C 120.636719 265.980469 113.078125 267.226562 105.625 268.902344 C 92.546875 272.207031 79.285156 274.886719 66.527344 279.351562 C 58.585938 282.304688 50.476562 285.472656 44.03125 291.152344 C 36.882812 298.113281 31.988281 306.246094 29.09375 315.765625 C 26.820312 322.511719 23.804688 328.984375 21.394531 335.6875 C 19.171875 342.019531 17.601562 348.554688 15.710938 354.996094 C 15.191406 357.265625 14.398438 359.488281 13.757812 361.742188 C 13.363281 363.113281 13.027344 364.5 12.84375 365.902344 C 12.953125 367.46875 14.917969 368.398438 16.242188 367.578125 C 17.265625 366.921875 17.492188 365.71875 17.769531 364.5625 C 17.859375 364.179688 17.949219 363.785156 18.089844 363.433594 C 18.820312 360.90625 19.519531 358.347656 20.238281 355.804688 C 22.828125 346.558594 25.238281 337.222656 29.125 328.40625 C 31.972656 321.933594 34.640625 312.976562 36.835938 308.332031 C 39.914062 302.453125 45.035156 296.027344 48.433594 293.394531 C 64.394531 281.984375 84.984375 279.078125 104.847656 273.761719 C 116.492188 271.308594 128.304688 268.949219 139.308594 264.378906 C 140.816406 271.050781 147.84375 275.011719 153.742188 277.507812 C 162.582031 281.101562 172.214844 282.152344 181.679688 282.410156 C 188.449219 282.5625 195.230469 282.945312 202 282.425781 C 219.207031 281.164062 236.355469 276.273438 251.320312 267.625 C 255.710938 265.066406 259.980469 262.035156 262.523438 257.511719 C 263.042969 256.71875 263.546875 255.925781 264.050781 255.136719 C 271.515625 257.753906 279.015625 260.28125 286.621094 262.535156 C 305.445312 268.707031 326.023438 271.308594 338.078125 284.574219 C 341.339844 288.472656 344.160156 291.734375 346.890625 297.214844 C 349.558594 302.683594 351.402344 313.238281 352.726562 321.15625 C 354.554688 332.320312 355.457031 340.574219 356.660156 351.964844 C 356.75 352.941406 356.84375 353.914062 356.917969 354.890625 C 356.996094 355.863281 357.070312 356.824219 357.148438 357.800781 C 357.117188 359.019531 358.199219 360.113281 359.433594 360.082031 C 362.34375 359.902344 361.660156 356.808594 361.476562 354.738281 Z M 90.792969 168.28125 C 90.304688 167.398438 89.847656 166.5 89.40625 165.585938 C 86.539062 160.359375 84.542969 152.441406 84.085938 147.203125 C 83.996094 146.105469 83.886719 145.007812 83.84375 143.914062 C 85.761719 145.144531 87.925781 146.195312 90.136719 146.289062 C 90.855469 151.601562 91.371094 156.964844 91.492188 162.78125 C 91.355469 164.457031 91.097656 166.164062 90.792969 168.28125 Z M 150.800781 233.066406 C 146.835938 233.707031 140.054688 234.074219 135.328125 232.625 C 126.183594 230.644531 120.589844 228.117188 114.84375 222.042969 C 105.851562 211.074219 97.667969 200.277344 95.058594 185.519531 C 94.90625 183.691406 94.511719 174.707031 95.058594 170.519531 C 95.289062 168.90625 96.417969 163.148438 95.988281 159.492188 C 95.394531 148.160156 93.351562 136.96875 91.21875 125.835938 C 91.539062 125.117188 91.492188 124.265625 91.617188 123.472656 C 91.644531 123.277344 91.691406 123 91.753906 122.820312 C 92.410156 120.703125 92.027344 121.507812 92.804688 119.988281 C 95.136719 115.933594 98.15625 113.042969 101.445312 108.335938 C 102.636719 106.691406 103.808594 104.359375 104.648438 102.5625 C 107.679688 104.953125 112.160156 104.832031 115.867188 103.75 C 119.417969 102.609375 122.449219 100.402344 125.589844 98.480469 C 139.660156 88.765625 160.066406 81.289062 171.179688 70.078125 C 171.378906 72.5 171.710938 75.773438 172.109375 77.800781 C 175.796875 94.414062 189.910156 105.671875 202.609375 115.796875 C 206.554688 119.042969 212.820312 124.570312 214.390625 127.191406 C 216.082031 129.625 215.6875 129.808594 216.796875 132.535156 C 217.53125 133.84375 219.480469 134.148438 220.53125 133.054688 C 220.882812 132.597656 221.25 132.046875 221.492188 131.46875 C 221.507812 131.453125 221.523438 131.453125 221.539062 131.453125 C 222.851562 130.449219 223.308594 128.667969 224.265625 127.34375 C 226.324219 124.082031 226.660156 123.015625 229.386719 120.671875 C 230.609375 119.773438 232.789062 118.066406 235.453125 117.761719 C 238.078125 117.671875 243.183594 117.503906 246.917969 119.011719 C 261.761719 125.757812 259.066406 146.378906 249.125 159.308594 C 243.546875 166.375 238.839844 170.746094 231.324219 174.601562 C 225.792969 177.722656 223.125 177.417969 222.027344 174.066406 C 221.996094 173.550781 221.890625 172.589844 221.660156 172.375 C 220.898438 171.019531 218.796875 170.839844 217.894531 172.132812 C 217.574219 172.515625 217.394531 173.015625 217.410156 173.519531 C 217.148438 175.558594 217.148438 176.351562 216.996094 177.066406 C 215.0625 185.230469 211.96875 191.277344 207.195312 199.015625 C 205.167969 202.625 203.171875 205.761719 201.328125 207.769531 C 191.984375 217.214844 175.324219 225.164062 163.9375 230.023438 C 159.734375 231.679688 155.234375 232.367188 150.800781 233.066406 Z M 256.855469 257.722656 C 256.351562 258.5625 253.304688 261.136719 250.484375 262.796875 C 232.375 273.683594 211.144531 278.832031 189.347656 278.054688 C 173.070312 278.011719 153.375 276.351562 145.101562 266.253906 C 144.398438 265.15625 143.925781 264.347656 143.925781 264.257812 C 143.851562 264.074219 143.757812 263.785156 143.714844 263.617188 C 143.683594 263.238281 143.589844 262.855469 143.410156 262.523438 C 144.519531 262.003906 145.617188 261.441406 146.714844 260.863281 C 154.304688 256.75 157.277344 252.179688 156.332031 243.394531 C 156.195312 241.214844 155.96875 239.039062 155.632812 236.890625 C 157.597656 236.507812 159.550781 236.097656 161.484375 235.65625 C 170.28125 232.761719 178.601562 228.515625 186.632812 223.960938 C 192.625 220.394531 198.660156 216.785156 203.691406 211.898438 C 207.882812 207.679688 210.488281 202.273438 213.628906 197.292969 C 216.492188 191.78125 219.464844 186.097656 220.960938 180.050781 C 221.933594 180.722656 223.046875 181.058594 224.222656 181.195312 C 225.273438 195.222656 227.925781 209.066406 231.597656 222.648438 C 233.273438 228.453125 234.050781 234.636719 236.691406 240.117188 C 238.304688 242.691406 240.332031 245.082031 242.878906 246.773438 C 246.808594 249.300781 251.367188 250.644531 255.726562 252.210938 C 257.023438 252.667969 258.332031 253.125 259.628906 253.582031 C 258.746094 254.984375 257.84375 256.382812 256.855469 257.722656 Z M 256.855469 257.722656 " fill-opacity="1" fill-rule="nonzero"/></g><path fill="#000000" d="M 123.59375 182.457031 C 125.253906 183.28125 127.222656 181.515625 126.671875 179.761719 C 126.261719 178.574219 125.042969 177.875 124.371094 176.824219 C 123.515625 175.636719 117.054688 167 116.855469 165.25 C 116.796875 165.113281 116.765625 164.960938 116.734375 164.824219 C 118.640625 162.902344 120.378906 160.832031 122.238281 158.851562 C 123.882812 157.023438 125.390625 154.96875 125.894531 152.515625 C 126.902344 143.152344 125.058594 133.664062 124.949219 124.265625 C 124.949219 121.3125 120.394531 121.265625 120.378906 124.265625 C 120.558594 132.824219 122.160156 145.054688 121.476562 151.390625 C 121.308594 152.640625 120.132812 154.285156 119.890625 154.574219 C 118.105469 156.628906 116.261719 158.65625 114.417969 160.664062 C 113.550781 161.535156 112.574219 162.402344 112.238281 163.621094 C 111.660156 165.902344 113.167969 168.035156 114.066406 170.046875 C 116.339844 173.671875 118.929688 177.082031 121.503906 180.507812 C 122.144531 181.179688 122.695312 182.09375 123.59375 182.457031 Z M 123.59375 182.457031 " fill-opacity="1" fill-rule="nonzero"/><path fill="#000000" d="M 228.902344 157.664062 C 229.753906 158.410156 231.125 158.257812 231.902344 157.480469 C 232.695312 156.613281 232.773438 155.335938 233.183594 154.269531 C 234.050781 151.4375 234.800781 148.558594 235.925781 145.816406 C 235.957031 145.738281 236.019531 145.617188 236.050781 145.527344 C 237.757812 145.695312 238.488281 145.890625 240.757812 147.429688 C 241.0625 147.6875 241.660156 148.175781 241.839844 148.375 C 242.695312 149.289062 243.867188 150.339844 245.179688 149.652344 C 248.960938 147.523438 244.296875 144.308594 242.269531 142.90625 C 241.019531 142.175781 239.570312 141.550781 238.089844 141.1875 C 239.007812 139.480469 240.105469 137.789062 241.199219 136.96875 C 241.214844 136.953125 241.230469 136.953125 241.246094 136.921875 C 242.269531 136.113281 243.898438 135.902344 244.25 134.453125 C 244.84375 132.566406 242.574219 130.816406 240.894531 131.878906 C 235.179688 134.453125 233.046875 140.972656 230.804688 146.363281 C 229.96875 148.738281 229.3125 151.191406 228.582031 153.597656 C 228.140625 154.9375 227.453125 156.707031 228.902344 157.664062 Z M 228.902344 157.664062 " fill-opacity="1" fill-rule="nonzero"/><path fill="#000000" d="M 293.632812 349.179688 C 293.054688 343.316406 291.242188 330.582031 290.796875 322.375 C 291.210938 319.117188 286.378906 318.613281 286.226562 321.917969 C 286.195312 326.53125 287.078125 331.085938 287.550781 335.671875 C 288.222656 341.578125 288.710938 347.519531 289.671875 353.398438 C 290.144531 356.351562 290.875 361.042969 290.980469 362.09375 C 291.042969 363.222656 291.242188 364.59375 292.476562 364.988281 C 293.480469 365.492188 294.777344 365.003906 295.324219 364.058594 C 296.011719 362.734375 295.28125 361.148438 295.234375 359.734375 C 294.746094 356.214844 294.136719 352.710938 293.632812 349.179688 Z M 293.632812 349.179688 " fill-opacity="1" fill-rule="nonzero"/><path fill="#000000" d="M 62.777344 327.597656 C 61.101562 336.996094 61.007812 346.605469 61.421875 356.109375 C 61.621094 360.175781 61.953125 364.226562 62.105469 368.277344 C 62.105469 368.886719 62.351562 369.464844 62.777344 369.890625 C 63.785156 370.941406 65.660156 370.683594 66.375 369.433594 C 67.046875 367.988281 66.464844 366.25 66.511719 364.714844 C 65.902344 355.558594 65.445312 346.363281 66.175781 337.207031 C 66.480469 333.722656 66.574219 332.351562 67 329.898438 C 67.152344 328.953125 67.535156 327.933594 66.96875 327.066406 C 66.023438 325.34375 63.234375 325.710938 62.777344 327.597656 Z M 62.777344 327.597656 " fill-opacity="1" fill-rule="nonzero"/><path fill="#000000" d="M 112.800781 117.871094 C 110.925781 116.527344 107.878906 116.773438 105.652344 116.726562 C 101.597656 117.183594 96.296875 118.769531 94.921875 123.046875 C 94.464844 125.421875 98.003906 126.625 99.144531 124.507812 C 99.953125 122.742188 103.304688 121.507812 106.003906 121.28125 C 107.941406 121.21875 109.386719 121.433594 109.816406 121.507812 C 110.652344 121.722656 111.566406 121.964844 112.34375 121.464844 C 113.625 120.746094 113.855469 118.875 112.800781 117.871094 Z M 112.800781 117.871094 " fill-opacity="1" fill-rule="nonzero"/><path fill="#000000" d="M 167.765625 112.097656 C 166.410156 111.714844 165.386719 112.8125 164.257812 113.363281 C 160.023438 115.554688 155.296875 117 151.730469 115.964844 C 151.378906 115.796875 151.027344 115.628906 150.710938 115.402344 C 150.679688 115.371094 150.632812 115.339844 150.601562 115.3125 C 150.464844 115.113281 150.3125 114.929688 150.113281 114.808594 C 148.269531 113.210938 145.449219 115.707031 146.761719 117.746094 C 151.394531 123.976562 163.96875 119.667969 168.96875 115.691406 C 170.003906 114.519531 169.273438 112.464844 167.765625 112.097656 Z M 167.765625 112.097656 " fill-opacity="1" fill-rule="nonzero"/><path fill="#000000" d="M 164.105469 136.753906 C 164.03125 136.464844 163.910156 136.238281 163.757812 136.023438 C 163.328125 133.875 162.429688 131.835938 161.089844 130.191406 C 160.082031 129.125 158.34375 128.714844 157.082031 129.566406 C 153.316406 132.046875 154.75 143.804688 157.964844 146.441406 C 159.6875 148.117188 162.507812 147.371094 163.589844 145.328125 C 164.976562 142.710938 164.824219 139.558594 164.105469 136.753906 Z M 164.105469 136.753906 " fill-opacity="1" fill-rule="nonzero"/><path fill="#000000" d="M 111.734375 137.804688 C 111.125 136.113281 110.683594 134.121094 109.113281 133.054688 C 108.199219 132.460938 107.238281 132.445312 106.402344 132.765625 C 105.636719 132.75 104.890625 133.085938 104.464844 133.859375 C 103.488281 135.71875 103.335938 137.910156 103.320312 139.984375 C 103.398438 142.710938 103.6875 145.574219 105.136719 147.949219 C 107.207031 151.390625 111.582031 151.007812 112.664062 147.035156 C 113.367188 143.957031 112.632812 140.761719 111.734375 137.804688 Z M 111.734375 137.804688 " fill-opacity="1" fill-rule="nonzero"/><path fill="#000000" d="M 139.78125 198.800781 C 134.796875 195.007812 127.785156 191.792969 121.671875 194.765625 C 119.097656 196.289062 121.398438 200.1875 123.976562 198.710938 C 126.582031 197.367188 132.054688 198.496094 137.128906 202.484375 C 137.660156 202.714844 138.257812 204.039062 140.175781 203.371094 C 142.386719 202.410156 141.6875 199.714844 139.78125 198.800781 Z M 139.78125 198.800781 " fill-opacity="1" fill-rule="nonzero"/><path fill="#ffffff" d="M 178.023438 255.042969 C 175.570312 262.003906 170.402344 267.472656 165.632812 272.921875 C 162.003906 276.851562 157.613281 279.960938 153.667969 283.539062 C 151.488281 285.273438 148.988281 286.585938 146.488281 287.773438 C 145.832031 288 145.160156 288.382812 144.476562 288.671875 C 144.03125 289.890625 143.378906 291.078125 143.101562 292.328125 C 141.273438 298.585938 139.871094 304.96875 137.890625 311.195312 C 135.742188 316.9375 133.683594 322.726562 131.320312 328.375 C 128.792969 334.316406 127.238281 340.574219 125.195312 346.667969 C 122.101562 354.355469 120.558594 362.503906 118.777344 370.5625 C 117.175781 370.835938 115.546875 371.019531 113.914062 371.140625 C 109.359375 371.460938 104.707031 371.292969 100.136719 371.109375 C 90 370.714844 79.847656 370.332031 69.714844 369.9375 C 68.339844 369.890625 66.894531 369.800781 65.507812 369.585938 C 63.980469 369.34375 62.503906 368.960938 61.222656 368.292969 C 61.222656 368.230469 61.238281 368.1875 61.253906 368.125 C 61.925781 366.222656 62.578125 364.332031 63.28125 362.445312 C 65.15625 357.511719 66.847656 352.453125 69.53125 347.882812 C 75.671875 336.460938 81.449219 324.75 88.964844 314.152344 C 93.6875 307.085938 98.230469 299.851562 102.179688 292.328125 C 105.652344 286.492188 108.046875 282.273438 109.265625 276.503906 C 109.570312 275.589844 109.371094 270.378906 109.144531 267.457031 C 109.113281 264.714844 109.386719 261.988281 109.601562 259.261719 C 109.96875 255.027344 111.277344 250.933594 112.894531 246.988281 C 112.878906 246.878906 112.832031 246.804688 112.816406 246.683594 C 113.5625 241.367188 114.355469 238.992188 114.480469 233.492188 C 114.433594 231.148438 112.007812 224.003906 113.214844 219.558594 C 114.265625 215.8125 118 213.285156 121.886719 214.183594 C 129.203125 215.234375 129.21875 226.976562 129.292969 230.84375 C 129.460938 230.78125 129.628906 230.722656 129.796875 230.660156 C 130.589844 230.371094 135.863281 226.808594 138.484375 225.421875 C 141.441406 223.746094 141.609375 223.320312 144.125 221.492188 C 150.007812 217.683594 156.105469 214.214844 162.371094 211.074219 C 165.644531 209.324219 169.304688 208.136719 173.007812 207.800781 C 175.507812 207.894531 177.199219 210.007812 178.433594 211.960938 C 180.949219 216.773438 178.375 220.03125 175.050781 223.398438 C 175.25 223.535156 175.433594 223.6875 175.613281 223.808594 C 179.089844 226.59375 179.332031 231.421875 179.929688 235.503906 C 181.164062 242.082031 180.523438 248.832031 178.023438 255.042969 Z M 178.023438 255.042969 " fill-opacity="1" fill-rule="nonzero"/><path fill="#000000" d="M 178.023438 255.042969 C 175.570312 262.003906 170.402344 267.472656 165.632812 272.921875 C 162.003906 276.851562 157.613281 279.960938 153.667969 283.539062 C 151.488281 285.273438 148.988281 286.585938 146.488281 287.773438 C 145.832031 288 145.160156 288.382812 144.476562 288.671875 C 144.03125 289.890625 143.378906 291.078125 143.101562 292.328125 C 141.273438 298.585938 139.871094 304.96875 137.890625 311.195312 C 135.742188 316.9375 133.683594 322.726562 131.320312 328.375 C 128.792969 334.316406 127.238281 340.574219 125.195312 346.667969 C 122.101562 354.355469 120.558594 362.503906 118.777344 370.5625 C 118.730469 370.761719 118.6875 370.972656 118.640625 371.171875 C 118.394531 372.191406 118.199219 373.332031 117.222656 373.898438 C 115.425781 375.023438 113.199219 373.042969 113.914062 371.140625 C 113.929688 371.078125 113.945312 371.019531 113.976562 370.957031 C 116.0625 362.019531 117.664062 352.941406 121.15625 344.398438 C 124.019531 333.933594 128.242188 323.957031 132.066406 313.832031 C 135.710938 304.953125 136.792969 295.234375 140.453125 286.371094 C 140.480469 286.203125 140.574219 286.066406 140.648438 285.929688 C 140.648438 285.914062 140.664062 285.898438 140.664062 285.898438 C 140.726562 285.761719 140.800781 285.640625 140.894531 285.519531 C 141.015625 285.351562 141.167969 285.183594 141.367188 285.0625 C 143.652344 283.964844 146.824219 282.808594 150.085938 280.554688 C 151.960938 279.046875 156.957031 274.734375 160.25 271.902344 C 164.960938 266.96875 168.4375 263.132812 171.453125 258.242188 C 173.890625 254.433594 175.644531 248.070312 175.964844 244.351562 C 176.195312 239.601562 175.308594 235.199219 174.792969 232.015625 C 173.90625 228.332031 173.890625 228.164062 172.125 226.914062 C 171.332031 227.964844 170.507812 229.078125 169.152344 230.617188 C 166.652344 233.1875 163.925781 235.09375 162.308594 236.417969 C 161.148438 237.4375 160.050781 238.519531 158.984375 239.617188 C 158.207031 240.40625 157.492188 241.460938 156.257812 241.445312 C 154.292969 241.519531 153.195312 238.886719 154.640625 237.546875 C 158.375 233.371094 161.257812 231.679688 164.792969 228.5 C 167.71875 225.710938 168.117188 224.339844 170.949219 221.097656 C 172.78125 219.011719 174 218.066406 174.714844 216.589844 C 174.746094 216.453125 174.808594 216.222656 174.851562 216.039062 C 174.820312 214.457031 174.457031 214.015625 173.3125 212.734375 C 173.191406 212.613281 173.070312 212.523438 172.949219 212.414062 C 172.933594 212.402344 172.933594 212.402344 172.917969 212.402344 C 172.886719 212.386719 172.855469 212.386719 172.824219 212.386719 L 172.65625 212.386719 C 170.722656 212.734375 168.816406 213.253906 166.972656 213.921875 C 162.140625 216.070312 149.519531 223.078125 145.328125 226.273438 C 141.855469 229.109375 137.722656 230.921875 134.066406 233.492188 C 131.519531 235.289062 126.902344 236.964844 125.164062 233.328125 C 124.265625 230.949219 124.917969 228.316406 124.523438 225.847656 C 123.683594 220.839844 122.785156 217.792969 119.28125 218.734375 C 116.367188 220.03125 117.511719 224.433594 119.003906 232.71875 C 119.050781 236.328125 118.609375 239.953125 117.953125 243.515625 C 118.167969 243.757812 118.351562 244.03125 118.441406 244.367188 C 118.792969 245.617188 117.847656 246.683594 117.4375 247.808594 C 117.144531 248.417969 115.46875 253.15625 114.769531 255.761719 C 113.992188 259.109375 113.761719 263.117188 113.730469 267.929688 C 114.082031 272.316406 114.355469 276.851562 112.800781 281.070312 C 111.078125 285.777344 108.886719 290.285156 106.1875 294.519531 C 102.710938 301.234375 98.628906 307.617188 94.574219 314.011719 C 88.75 321.917969 84.132812 330.539062 79.347656 339.082031 C 76.328125 344.792969 72.121094 352.347656 70.382812 356.519531 C 69.164062 359.808594 67.867188 363.085938 66.695312 366.402344 C 66.359375 367.347656 66.039062 368.613281 65.507812 369.585938 C 64.835938 370.835938 63.828125 371.597656 62.078125 370.515625 C 61.359375 370.042969 61.054688 369.113281 61.222656 368.292969 C 61.222656 368.230469 61.238281 368.1875 61.253906 368.125 C 61.925781 366.222656 62.578125 364.332031 63.28125 362.445312 C 65.15625 357.511719 66.847656 352.453125 69.53125 347.882812 C 75.671875 336.460938 81.449219 324.75 88.964844 314.152344 C 93.6875 307.085938 98.230469 299.851562 102.179688 292.328125 C 105.652344 286.492188 108.046875 282.273438 109.265625 276.503906 C 109.570312 275.589844 109.371094 270.378906 109.144531 267.457031 C 109.113281 264.714844 109.386719 261.988281 109.601562 259.261719 C 109.96875 255.027344 111.277344 250.933594 112.894531 246.988281 C 112.878906 246.878906 112.832031 246.804688 112.816406 246.683594 C 113.5625 241.367188 114.355469 238.992188 114.480469 233.492188 C 114.433594 231.148438 112.007812 224.003906 113.214844 219.558594 C 114.265625 215.8125 118 213.285156 121.886719 214.183594 C 129.203125 215.234375 129.21875 226.976562 129.292969 230.84375 C 129.460938 230.78125 129.628906 230.722656 129.796875 230.660156 C 130.589844 230.371094 135.863281 226.808594 138.484375 225.421875 C 141.441406 223.746094 141.609375 223.320312 144.125 221.492188 C 150.007812 217.683594 156.105469 214.214844 162.371094 211.074219 C 165.644531 209.324219 169.304688 208.136719 173.007812 207.800781 C 175.507812 207.894531 177.199219 210.007812 178.433594 211.957031 C 180.949219 216.773438 178.375 220.03125 175.050781 223.398438 C 175.25 223.535156 175.433594 223.6875 175.613281 223.808594 C 179.089844 226.59375 179.332031 231.421875 179.929688 235.503906 C 181.164062 242.082031 180.523438 248.832031 178.023438 255.042969 Z M 178.023438 255.042969 " fill-opacity="1" fill-rule="nonzero"/></svg>