<svg xmlns="http://www.w3.org/2000/svg" xmlns:xlink="http://www.w3.org/1999/xlink" width="500" zoomAndPan="magnify" viewBox="0 0 375 374.999991" height="500" preserveAspectRatio="xMidYMid meet" version="1.0"><defs><clipPath id="688593e0d8"><path d="M 10.527344 275.667969 L 42.242188 275.667969 L 42.242188 332.984375 L 10.527344 332.984375 Z M 10.527344 275.667969 " clip-rule="nonzero"/></clipPath><clipPath id="cb3662df57"><path d="M 10.527344 287.320312 L 41.859375 287.320312 L 41.859375 332.984375 L 10.527344 332.984375 Z M 10.527344 287.320312 " clip-rule="nonzero"/></clipPath><clipPath id="194fc51479"><path d="M 348.46875 66.308594 L 364.476562 66.308594 L 364.476562 98 L 348.46875 98 Z M 348.46875 66.308594 " clip-rule="nonzero"/></clipPath></defs><path fill="#fd9879" d="M 171.960938 282.378906 C 171.960938 282.378906 166.667969 286.285156 161.570312 290.183594 C 160.734375 290.828125 159.898438 291.476562 159.089844 292.09375 C 158.382812 292.640625 157.707031 293.175781 157.070312 293.6875 C 155.25 295.125 153.75 296.359375 152.9375 297.121094 C 152.839844 297.210938 152.746094 297.3125 152.664062 297.414062 C 152.628906 297.453125 152.597656 297.488281 152.574219 297.53125 C 152.511719 297.597656 152.457031 297.671875 152.414062 297.746094 C 152.347656 297.832031 152.289062 297.9375 152.238281 298.039062 C 152.207031 298.089844 152.179688 298.140625 152.148438 298.203125 C 152.105469 298.289062 152.0625 298.386719 152.019531 298.480469 C 152.011719 298.492188 152.003906 298.507812 151.996094 298.53125 C 151.921875 298.683594 151.855469 298.855469 151.804688 299.023438 C 151.730469 299.214844 151.671875 299.414062 151.621094 299.609375 C 151.5625 299.800781 151.511719 300 151.472656 300.203125 C 151.46875 300.21875 151.460938 300.242188 151.460938 300.257812 C 151.453125 300.292969 151.445312 300.320312 151.4375 300.359375 C 151.386719 300.59375 151.347656 300.835938 151.3125 301.078125 C 151.3125 301.078125 151.304688 301.085938 151.304688 301.078125 C 151.246094 301.453125 151.203125 301.835938 151.171875 302.222656 C 151.152344 302.453125 151.128906 302.679688 151.121094 302.910156 C 151.105469 303.136719 151.09375 303.363281 151.085938 303.589844 C 151.078125 303.671875 151.078125 303.746094 151.078125 303.816406 C 151.070312 304.121094 151.0625 304.40625 151.0625 304.691406 C 151.0625 305.9375 151.128906 307.09375 151.179688 307.894531 C 151.480469 312.496094 149.5 316.929688 149.335938 321.542969 C 149.242188 324.449219 151.035156 328.582031 147.824219 328.371094 C 145.820312 328.238281 145.011719 325.375 144.359375 323.8125 C 143.632812 322.085938 143 320.316406 142.324219 318.574219 C 140.570312 314.066406 138.851562 309.53125 137.183594 304.992188 C 135.914062 301.511719 134.628906 298.039062 133.535156 294.507812 C 132.585938 291.453125 132.21875 288.617188 132.15625 285.378906 C 132.074219 280.984375 133.976562 277.75 136.722656 275.007812 C 138.160156 273.542969 139.828125 272.222656 141.570312 270.945312 L 141.570312 270.9375 C 143.167969 269.757812 144.8125 268.601562 146.378906 267.390625 C 146.882812 267 147.398438 266.605469 147.90625 266.222656 C 151.945312 263.164062 155.578125 260.605469 155.578125 260.605469 C 155.578125 260.605469 163.878906 264.535156 167.953125 270.601562 C 171.386719 275.71875 171.960938 282.378906 171.960938 282.378906 " fill-opacity="1" fill-rule="nonzero"/><path fill="#354da6" d="M 157.070312 293.6875 C 155.25 295.125 153.75 296.359375 152.9375 297.121094 C 152.839844 297.210938 152.746094 297.304688 152.664062 297.414062 C 152.628906 297.453125 152.597656 297.488281 152.570312 297.53125 C 152.539062 297.570312 152.511719 297.605469 152.480469 297.640625 C 152.457031 297.671875 152.4375 297.707031 152.414062 297.746094 C 152.347656 297.832031 152.289062 297.9375 152.238281 298.039062 C 152.207031 298.089844 152.179688 298.140625 152.148438 298.203125 C 152.105469 298.289062 152.0625 298.386719 152.019531 298.480469 C 152.011719 298.492188 152.003906 298.507812 151.996094 298.53125 C 151.929688 298.683594 151.863281 298.855469 151.804688 299.023438 C 151.730469 299.214844 151.671875 299.40625 151.621094 299.609375 C 151.5625 299.800781 151.519531 300 151.472656 300.203125 C 151.46875 300.21875 151.460938 300.242188 151.460938 300.257812 C 151.453125 300.292969 151.445312 300.320312 151.445312 300.359375 C 151.445312 300.359375 151.445312 300.359375 151.4375 300.359375 C 151.386719 300.59375 151.347656 300.835938 151.3125 301.078125 C 151.253906 301.453125 151.203125 301.835938 151.171875 302.222656 C 151.152344 302.453125 151.128906 302.679688 151.121094 302.910156 C 151.105469 303.136719 151.09375 303.363281 151.085938 303.589844 C 151.078125 303.671875 151.078125 303.746094 151.078125 303.816406 C 151.070312 303.988281 151.070312 304.15625 151.0625 304.324219 L 151.0625 304.691406 C 151.0625 305.9375 151.128906 307.09375 151.179688 307.894531 C 151.21875 308.480469 151.269531 309.082031 151.3125 309.691406 C 151.34375 309.941406 151.363281 310.183594 151.386719 310.433594 C 151.539062 312.101562 151.730469 313.820312 151.894531 315.527344 C 151.921875 315.761719 151.9375 316.003906 151.960938 316.25 C 151.988281 316.542969 152.011719 316.828125 152.03125 317.113281 C 152.195312 318.945312 152.304688 320.75 152.289062 322.445312 C 152.265625 324.78125 151.128906 328.886719 148.484375 329.574219 C 147.890625 329.738281 147.339844 329.738281 146.828125 329.632812 C 146.519531 329.5625 146.210938 329.457031 145.921875 329.3125 C 144.277344 328.503906 143.089844 326.570312 142.433594 324.984375 C 141.699219 323.253906 141.074219 321.484375 140.402344 319.746094 C 138.640625 315.234375 136.929688 310.707031 135.261719 306.160156 C 133.183594 300.464844 130.699219 294.902344 128.570312 289.214844 C 127.902344 287.414062 127.226562 285.621094 126.734375 283.765625 C 126.425781 282.597656 127.277344 281.839844 128.101562 281.144531 C 128.195312 281.054688 128.300781 280.976562 128.394531 280.886719 C 128.425781 280.863281 128.453125 280.84375 128.476562 280.820312 C 128.550781 280.753906 128.625 280.6875 128.695312 280.628906 C 129.746094 279.71875 130.839844 278.867188 131.949219 278.023438 C 134.785156 275.867188 137.675781 273.792969 140.546875 271.695312 C 140.890625 271.445312 141.230469 271.195312 141.570312 270.945312 L 149.941406 290.578125 C 149.941406 290.578125 155.085938 291.144531 157.070312 293.6875 " fill-opacity="1" fill-rule="nonzero"/><path fill="#ffe4d6" d="M 152.289062 322.445312 C 152.265625 324.78125 151.128906 328.886719 148.484375 329.574219 C 147.890625 329.738281 147.339844 329.738281 146.828125 329.632812 C 146.519531 329.5625 146.210938 329.457031 145.921875 329.3125 C 144.277344 328.503906 143.089844 326.570312 142.433594 324.984375 C 141.699219 323.253906 141.074219 321.484375 140.402344 319.746094 C 138.640625 315.234375 136.929688 310.707031 135.261719 306.160156 C 133.183594 300.464844 130.699219 294.902344 128.570312 289.214844 C 127.902344 287.414062 127.226562 285.621094 126.734375 283.765625 C 126.425781 282.597656 127.277344 281.839844 128.101562 281.144531 C 128.195312 281.054688 128.300781 280.976562 128.394531 280.886719 C 128.425781 280.863281 128.453125 280.84375 128.476562 280.820312 L 143.867188 318.9375 C 143.867188 318.9375 148.882812 317.753906 152.03125 317.113281 C 152.195312 318.945312 152.304688 320.75 152.289062 322.445312 " fill-opacity="1" fill-rule="nonzero"/><path fill="#ffffff" d="M 152.574219 297.53125 C 152.511719 297.597656 152.457031 297.671875 152.414062 297.746094 C 152.347656 297.832031 152.289062 297.9375 152.238281 298.039062 C 152.207031 298.089844 152.179688 298.140625 152.148438 298.203125 C 150.628906 297.921875 149.125 297.527344 147.671875 296.921875 C 147.238281 296.746094 147.429688 296.035156 147.867188 296.210938 C 149.398438 296.835938 150.96875 297.238281 152.570312 297.53125 C 152.570312 297.53125 152.570312 297.53125 152.574219 297.53125 " fill-opacity="1" fill-rule="nonzero"/><path fill="#ffffff" d="M 151.4375 300.359375 C 151.386719 300.59375 151.347656 300.835938 151.3125 301.078125 C 151.3125 301.078125 151.304688 301.085938 151.304688 301.078125 C 149.925781 300.808594 148.558594 300.441406 147.207031 299.96875 C 146.761719 299.816406 146.957031 299.101562 147.398438 299.265625 C 148.726562 299.726562 150.078125 300.082031 151.4375 300.359375 " fill-opacity="1" fill-rule="nonzero"/><path fill="#fd9879" d="M 55.214844 282.546875 C 55.214844 282.546875 50.550781 287.1875 46.082031 291.792969 C 45.347656 292.554688 44.613281 293.316406 43.90625 294.042969 C 43.289062 294.691406 42.699219 295.324219 42.144531 295.917969 C 40.550781 297.609375 39.253906 299.046875 38.558594 299.921875 C 38.476562 300.023438 38.398438 300.140625 38.332031 300.253906 C 38.300781 300.296875 38.277344 300.335938 38.261719 300.382812 C 38.207031 300.457031 38.167969 300.539062 38.132812 300.617188 C 38.082031 300.714844 38.039062 300.824219 38.003906 300.933594 C 37.980469 300.988281 37.960938 301.042969 37.9375 301.105469 C 37.90625 301.199219 37.878906 301.300781 37.847656 301.402344 C 37.84375 301.417969 37.839844 301.433594 37.835938 301.457031 C 37.785156 301.617188 37.746094 301.796875 37.71875 301.96875 C 37.671875 302.171875 37.644531 302.375 37.621094 302.578125 C 37.59375 302.777344 37.570312 302.976562 37.566406 303.1875 C 37.558594 303.203125 37.554688 303.226562 37.558594 303.242188 C 37.554688 303.277344 37.554688 303.308594 37.550781 303.34375 C 37.535156 303.585938 37.535156 303.832031 37.535156 304.074219 C 37.535156 304.074219 37.527344 304.085938 37.527344 304.078125 C 37.523438 304.457031 37.535156 304.839844 37.5625 305.230469 C 37.574219 305.457031 37.585938 305.683594 37.613281 305.914062 C 37.632812 306.140625 37.652344 306.367188 37.675781 306.59375 C 37.679688 306.675781 37.691406 306.746094 37.703125 306.820312 C 37.738281 307.117188 37.773438 307.402344 37.816406 307.683594 C 38 308.921875 38.234375 310.050781 38.402344 310.835938 C 39.375 315.34375 38.066406 320.023438 38.582031 324.609375 C 38.914062 327.496094 41.292969 331.324219 38.085938 331.582031 C 36.085938 331.746094 34.867188 329.035156 33.992188 327.582031 C 33.019531 325.984375 32.132812 324.324219 31.210938 322.703125 C 28.8125 318.5 26.449219 314.265625 24.132812 310.019531 C 22.363281 306.765625 20.585938 303.515625 18.984375 300.183594 C 17.597656 297.300781 16.820312 294.550781 16.277344 291.359375 C 15.554688 287.019531 16.960938 283.542969 19.273438 280.425781 C 20.484375 278.769531 21.9375 277.21875 23.472656 275.699219 L 23.472656 275.691406 C 24.882812 274.289062 26.339844 272.90625 27.707031 271.476562 C 28.152344 271.015625 28.601562 270.550781 29.046875 270.097656 C 32.59375 266.476562 35.8125 263.417969 35.8125 263.417969 C 35.8125 263.417969 44.597656 266.085938 49.519531 271.484375 C 53.667969 276.042969 55.214844 282.546875 55.214844 282.546875 " fill-opacity="1" fill-rule="nonzero"/><g clip-path="url(#688593e0d8)"><path fill="#354da6" d="M 42.144531 295.917969 C 40.550781 297.609375 39.253906 299.046875 38.558594 299.921875 C 38.476562 300.023438 38.394531 300.132812 38.332031 300.253906 C 38.300781 300.296875 38.277344 300.335938 38.253906 300.382812 C 38.230469 300.425781 38.207031 300.464844 38.183594 300.503906 C 38.167969 300.539062 38.148438 300.578125 38.132812 300.617188 C 38.082031 300.714844 38.039062 300.824219 38.003906 300.933594 C 37.980469 300.988281 37.960938 301.042969 37.9375 301.105469 C 37.90625 301.199219 37.878906 301.300781 37.847656 301.402344 C 37.84375 301.417969 37.839844 301.433594 37.835938 301.457031 C 37.792969 301.617188 37.75 301.792969 37.71875 301.96875 C 37.671875 302.171875 37.644531 302.367188 37.621094 302.578125 C 37.59375 302.777344 37.578125 302.976562 37.566406 303.1875 C 37.558594 303.203125 37.554688 303.226562 37.558594 303.242188 C 37.554688 303.277344 37.554688 303.308594 37.558594 303.34375 C 37.558594 303.34375 37.558594 303.34375 37.550781 303.34375 C 37.535156 303.585938 37.535156 303.832031 37.535156 304.074219 C 37.53125 304.457031 37.535156 304.839844 37.5625 305.230469 C 37.574219 305.457031 37.585938 305.683594 37.613281 305.914062 C 37.632812 306.140625 37.652344 306.367188 37.675781 306.59375 C 37.679688 306.675781 37.691406 306.746094 37.703125 306.820312 C 37.71875 306.988281 37.746094 307.152344 37.761719 307.324219 L 37.816406 307.683594 C 38 308.921875 38.234375 310.050781 38.402344 310.835938 C 38.523438 311.410156 38.664062 312 38.796875 312.59375 C 38.863281 312.839844 38.917969 313.074219 38.980469 313.320312 C 39.375 314.945312 39.816406 316.617188 40.226562 318.285156 C 40.292969 318.511719 40.339844 318.75 40.398438 318.984375 C 40.46875 319.273438 40.535156 319.554688 40.597656 319.832031 C 41.027344 321.617188 41.398438 323.390625 41.632812 325.066406 C 41.957031 327.382812 41.433594 331.609375 38.917969 332.679688 C 38.351562 332.925781 37.808594 333.007812 37.285156 332.980469 C 36.96875 332.953125 36.648438 332.894531 36.34375 332.792969 C 34.597656 332.234375 33.140625 330.5 32.261719 329.027344 C 31.277344 327.421875 30.402344 325.761719 29.480469 324.140625 C 27.074219 319.941406 24.714844 315.707031 22.402344 311.457031 C 19.507812 306.125 16.238281 300.992188 13.296875 295.675781 C 12.371094 293.996094 11.441406 292.320312 10.679688 290.558594 C 10.203125 289.445312 10.9375 288.574219 11.648438 287.761719 C 11.730469 287.660156 11.820312 287.566406 11.902344 287.464844 C 11.925781 287.4375 11.953125 287.414062 11.96875 287.386719 C 12.035156 287.3125 12.097656 287.234375 12.160156 287.167969 C 13.066406 286.113281 14.023438 285.109375 14.996094 284.113281 C 17.480469 281.558594 20.039062 279.085938 22.574219 276.589844 C 22.878906 276.292969 23.175781 275.996094 23.472656 275.699219 L 34.632812 293.890625 C 34.632812 293.890625 39.808594 293.695312 42.144531 295.917969 " fill-opacity="1" fill-rule="nonzero"/></g><g clip-path="url(#cb3662df57)"><path fill="#ffe4d6" d="M 41.632812 325.066406 C 41.957031 327.382812 41.433594 331.609375 38.917969 332.679688 C 38.351562 332.925781 37.808594 333.007812 37.285156 332.980469 C 36.96875 332.953125 36.648438 332.894531 36.34375 332.792969 C 34.597656 332.234375 33.140625 330.5 32.261719 329.027344 C 31.277344 327.421875 30.402344 325.761719 29.480469 324.140625 C 27.074219 319.941406 24.714844 315.707031 22.402344 311.457031 C 19.507812 306.125 16.238281 300.992188 13.296875 295.675781 C 12.371094 293.996094 11.441406 292.320312 10.679688 290.558594 C 10.203125 289.445312 10.9375 288.574219 11.648438 287.761719 C 11.730469 287.660156 11.820312 287.566406 11.902344 287.464844 C 11.925781 287.4375 11.953125 287.414062 11.96875 287.386719 L 32.789062 322.832031 C 32.789062 322.832031 37.574219 320.925781 40.597656 319.832031 C 41.027344 321.617188 41.398438 323.390625 41.632812 325.066406 " fill-opacity="1" fill-rule="nonzero"/></g><path fill="#ffffff" d="M 38.261719 300.382812 C 38.207031 300.457031 38.167969 300.539062 38.132812 300.617188 C 38.082031 300.714844 38.039062 300.824219 38.003906 300.933594 C 37.980469 300.988281 37.960938 301.042969 37.9375 301.105469 C 36.394531 301.054688 34.847656 300.882812 33.320312 300.5 C 32.867188 300.386719 32.949219 299.65625 33.410156 299.765625 C 35.015625 300.160156 36.628906 300.328125 38.253906 300.382812 C 38.253906 300.382812 38.253906 300.382812 38.261719 300.382812 " fill-opacity="1" fill-rule="nonzero"/><path fill="#ffffff" d="M 37.550781 303.34375 C 37.535156 303.585938 37.535156 303.832031 37.535156 304.074219 C 37.535156 304.074219 37.527344 304.085938 37.527344 304.078125 C 36.121094 304.011719 34.714844 303.847656 33.308594 303.582031 C 32.84375 303.496094 32.9375 302.761719 33.394531 302.855469 C 34.777344 303.117188 36.167969 303.269531 37.550781 303.34375 " fill-opacity="1" fill-rule="nonzero"/><path fill="#484859" d="M 131.707031 141.785156 C 123.328125 147 116.179688 153.96875 110.957031 162.359375 C 108.800781 165.820312 106.171875 170.28125 108.253906 174.382812 C 110.105469 178.027344 114.492188 178.53125 118.148438 178.574219 C 120.984375 178.609375 120.984375 174.203125 118.148438 174.167969 C 116.773438 174.152344 115.035156 174.261719 113.773438 173.644531 C 110.878906 172.238281 112.160156 169.226562 113.289062 167.074219 C 114.890625 164.019531 116.957031 161.113281 119.144531 158.460938 C 123.339844 153.367188 128.332031 149.074219 133.929688 145.589844 C 136.332031 144.09375 134.121094 140.28125 131.707031 141.785156 " fill-opacity="1" fill-rule="nonzero"/><path fill="#ffd3bd" d="M 264.316406 222.285156 C 264.21875 222.527344 264.117188 222.769531 264.007812 223.019531 C 263.714844 223.703125 263.390625 224.402344 263.03125 225.089844 C 262.898438 225.339844 262.765625 225.589844 262.636719 225.839844 C 261.105469 228.613281 259.042969 231.472656 256.398438 234.421875 C 254.300781 236.765625 251.890625 239.253906 249.238281 241.832031 C 248.761719 242.292969 248.269531 242.761719 247.777344 243.234375 C 244.378906 246.492188 240.640625 249.871094 236.742188 253.265625 C 236.507812 253.46875 236.273438 253.675781 236.03125 253.882812 C 233.320312 256.238281 230.539062 258.59375 227.734375 260.921875 C 227.488281 261.128906 227.238281 261.335938 226.996094 261.53125 C 226.519531 261.929688 226.035156 262.324219 225.558594 262.722656 C 225.257812 262.972656 224.964844 263.214844 224.664062 263.453125 C 218.472656 268.535156 212.304688 273.398438 206.773438 277.679688 C 206.582031 277.824219 206.398438 277.972656 206.214844 278.113281 C 206.179688 278.140625 206.144531 278.164062 206.113281 278.191406 C 205.902344 278.355469 205.6875 278.515625 205.484375 278.675781 C 203.527344 280.183594 201.65625 281.613281 199.910156 282.941406 C 199.578125 283.191406 199.253906 283.433594 198.933594 283.679688 C 191.148438 289.574219 185.90625 293.363281 185.90625 293.363281 C 185.90625 293.363281 185.480469 293.199219 184.707031 292.878906 C 184.496094 292.789062 184.246094 292.6875 183.976562 292.566406 C 180.839844 291.226562 174.238281 288.207031 167.152344 283.691406 C 167.144531 283.691406 167.128906 283.683594 167.121094 283.679688 C 166.910156 283.542969 166.695312 283.414062 166.484375 283.273438 C 166.316406 283.164062 166.144531 283.054688 165.976562 282.941406 C 165.058594 282.339844 164.132812 281.714844 163.199219 281.0625 C 162.960938 280.894531 162.714844 280.71875 162.464844 280.542969 C 158.992188 278.046875 155.558594 275.21875 152.496094 272.066406 C 151.527344 271.070312 150.613281 270.101562 149.769531 269.167969 C 149.625 269 149.46875 268.828125 149.316406 268.660156 C 147.664062 266.796875 146.246094 265.054688 145.042969 263.453125 C 144.851562 263.207031 144.675781 262.964844 144.5 262.722656 C 143.382812 261.195312 142.457031 259.800781 141.691406 258.542969 C 141.429688 258.101562 141.1875 257.675781 140.957031 257.273438 C 138.507812 252.90625 138.175781 250.523438 138.175781 250.523438 C 138.175781 250.523438 139.226562 250.144531 140.957031 249.453125 C 141.195312 249.359375 141.4375 249.261719 141.691406 249.152344 C 144.820312 247.886719 149.660156 245.820312 154.652344 243.234375 C 155.125 242.992188 155.59375 242.75 156.0625 242.5 C 156.90625 242.046875 157.753906 241.582031 158.582031 241.105469 C 158.804688 240.988281 159.007812 240.863281 159.222656 240.738281 C 160.332031 240.097656 161.417969 239.4375 162.464844 238.761719 C 162.714844 238.601562 162.960938 238.445312 163.199219 238.285156 C 163.8125 237.882812 164.40625 237.476562 164.976562 237.066406 C 169.605469 233.777344 173.488281 230.730469 176.890625 227.894531 C 177.085938 227.726562 177.277344 227.566406 177.46875 227.402344 C 179.277344 225.890625 180.949219 224.429688 182.527344 223.019531 C 182.800781 222.777344 183.070312 222.527344 183.34375 222.285156 C 183.554688 222.101562 183.769531 221.910156 183.976562 221.710938 C 184.222656 221.5 184.46875 221.273438 184.707031 221.050781 C 185.964844 219.914062 187.167969 218.8125 188.34375 217.734375 C 188.425781 217.660156 188.511719 217.578125 188.59375 217.507812 C 188.8125 217.308594 189.042969 217.109375 189.261719 216.917969 C 195.011719 211.902344 201.019531 208.921875 201.019531 208.921875 C 201.019531 208.921875 195.597656 208.496094 188.152344 206.199219 C 187.824219 206.09375 187.484375 205.984375 187.140625 205.875 C 186.347656 205.617188 185.539062 205.339844 184.707031 205.039062 C 184.46875 204.949219 184.222656 204.863281 183.976562 204.765625 C 182.71875 204.296875 181.417969 203.777344 180.105469 203.195312 C 179.863281 203.085938 179.621094 202.976562 179.378906 202.863281 C 179.328125 202.84375 179.28125 202.820312 179.230469 202.800781 C 178.726562 202.5625 178.210938 202.320312 177.695312 202.066406 C 177.394531 201.925781 177.09375 201.769531 176.785156 201.617188 C 174.898438 200.660156 172.996094 199.582031 171.101562 198.363281 C 169.890625 197.585938 168.6875 196.75 167.488281 195.851562 C 167.488281 195.84375 167.488281 195.84375 167.488281 195.84375 C 167.453125 195.816406 167.421875 195.792969 167.386719 195.765625 C 165.960938 194.699219 164.558594 193.539062 163.199219 192.285156 C 162.953125 192.054688 162.710938 191.828125 162.464844 191.585938 C 162.078125 191.21875 161.6875 190.835938 161.304688 190.449219 C 158.898438 188.003906 157.511719 185.339844 156.886719 182.578125 C 156.828125 182.335938 156.785156 182.09375 156.738281 181.84375 C 155.59375 175.335938 158.558594 168.355469 162.464844 162.378906 C 162.710938 162.003906 162.953125 161.636719 163.199219 161.269531 C 168.714844 153.214844 175.625 147.246094 175.625 147.246094 L 195.453125 147.246094 C 195.453125 147.246094 199.453125 149.800781 205.484375 153.800781 C 205.726562 153.972656 205.96875 154.132812 206.214844 154.300781 C 209.375 156.410156 213.054688 158.882812 216.972656 161.585938 C 216.988281 161.601562 217.011719 161.605469 217.027344 161.621094 C 217.210938 161.753906 217.398438 161.878906 217.589844 162.019531 C 217.753906 162.128906 217.921875 162.238281 218.082031 162.355469 C 220.96875 164.34375 223.980469 166.453125 226.996094 168.613281 C 227.238281 168.789062 227.484375 168.964844 227.734375 169.140625 C 233.570312 173.324219 239.429688 177.703125 244.582031 181.84375 C 244.855469 182.054688 245.121094 182.277344 245.382812 182.488281 C 245.421875 182.519531 245.460938 182.546875 245.496094 182.578125 C 246.53125 183.421875 247.539062 184.257812 248.507812 185.097656 C 248.757812 185.308594 249 185.523438 249.238281 185.734375 C 249.511719 185.976562 249.785156 186.210938 250.054688 186.453125 C 250.296875 186.667969 250.53125 186.878906 250.769531 187.101562 C 256.171875 191.996094 260.476562 196.9375 263.132812 202.066406 C 263.257812 202.308594 263.382812 202.554688 263.5 202.800781 C 266.480469 208.945312 267.066406 215.355469 264.316406 222.285156 " fill-opacity="1" fill-rule="nonzero"/><path fill="#ffffff" d="M 257.582031 225.683594 C 253.945312 225.992188 250.304688 226.105469 246.671875 226.066406 C 250.878906 219.722656 254.019531 211.476562 250.941406 204.03125 C 249.378906 200.242188 246.382812 197.292969 243.363281 194.613281 C 241.265625 192.738281 239.128906 190.917969 236.96875 189.113281 C 241.535156 188.253906 246.140625 187.585938 250.769531 187.101562 C 250.53125 186.878906 250.296875 186.667969 250.054688 186.453125 C 245.429688 186.960938 240.824219 187.644531 236.25 188.519531 C 235.007812 187.480469 233.761719 186.441406 232.496094 185.417969 C 225.066406 179.367188 217.378906 173.628906 209.5 168.179688 C 211.453125 166.550781 213.457031 164.960938 215.542969 163.464844 C 216.21875 162.972656 216.902344 162.496094 217.589844 162.019531 C 217.398438 161.878906 217.210938 161.753906 217.027344 161.621094 C 217.011719 161.605469 216.988281 161.601562 216.972656 161.585938 C 214.183594 163.515625 211.472656 165.574219 208.859375 167.730469 C 199.234375 161.109375 189.3125 154.917969 179.105469 149.21875 C 178.695312 148.984375 178.328125 149.617188 178.738281 149.851562 C 188.863281 155.511719 198.726562 161.636719 208.289062 168.207031 C 206.679688 169.558594 205.09375 170.941406 203.550781 172.378906 C 201.589844 174.214844 199.703125 176.128906 197.875 178.097656 C 195.53125 176.570312 193.199219 175.023438 190.90625 173.414062 C 184.570312 168.964844 176.660156 163.714844 174.003906 156.054688 C 173.847656 155.609375 173.136719 155.800781 173.289062 156.246094 C 175.363281 162.210938 180.40625 166.378906 185.230469 170.132812 C 189.136719 173.171875 193.226562 175.941406 197.359375 178.640625 C 191.433594 185.097656 186.207031 192.179688 181.457031 199.554688 C 180.75 200.65625 180.054688 201.757812 179.378906 202.863281 C 179.621094 202.976562 179.863281 203.085938 180.105469 203.195312 C 185.457031 194.65625 191.347656 186.511719 198.101562 179.117188 C 199.46875 180.007812 200.84375 180.894531 202.214844 181.777344 C 207.746094 185.324219 213.289062 188.878906 218.496094 192.886719 C 208.890625 195.792969 199.527344 199.539062 190.5625 204.082031 C 189.414062 204.664062 188.269531 205.257812 187.140625 205.875 C 187.484375 205.984375 187.824219 206.09375 188.152344 206.199219 C 198.050781 200.941406 208.464844 196.667969 219.199219 193.4375 C 219.492188 193.664062 219.78125 193.886719 220.066406 194.113281 C 221.242188 195.046875 222.503906 195.96875 223.53125 197.066406 C 225.15625 198.789062 225.324219 200.941406 225.191406 203.195312 C 224.96875 206.953125 223.90625 210.648438 222.386719 214.085938 C 220.984375 217.257812 219.292969 220.179688 217.378906 222.902344 C 216.828125 222.800781 216.277344 222.703125 215.726562 222.59375 C 208.03125 221.132812 197.015625 218.726562 189.261719 216.917969 C 189.042969 217.109375 188.8125 217.308594 188.59375 217.507812 C 188.609375 217.519531 188.628906 217.519531 188.644531 217.527344 C 196.871094 219.453125 208.609375 222.023438 216.917969 223.5625 C 212.171875 230.121094 206.085938 235.496094 199.351562 240.1875 C 196.082031 238.59375 192.851562 236.90625 189.695312 235.105469 C 185.507812 232.710938 181.425781 230.148438 177.46875 227.402344 C 177.277344 227.566406 177.085938 227.726562 176.890625 227.894531 C 183.820312 232.683594 191.105469 236.941406 198.667969 240.65625 C 190.597656 246.179688 181.65625 250.753906 173.011719 255.195312 C 172.8125 255.019531 172.617188 254.84375 172.417969 254.664062 C 167.695312 250.339844 163.289062 245.6875 159.222656 240.738281 C 159.007812 240.863281 158.804688 240.988281 158.582031 241.105469 C 162.804688 246.25 167.417969 251.0625 172.34375 255.53125 C 169.121094 257.191406 165.941406 258.835938 162.871094 260.503906 C 158.253906 263.023438 153.671875 265.703125 149.316406 268.660156 C 149.46875 268.828125 149.625 269 149.769531 269.167969 C 157.046875 264.242188 164.964844 260.117188 172.894531 256.039062 C 177.902344 260.535156 183.234375 264.667969 188.835938 268.394531 C 188.445312 268.632812 188.058594 268.859375 187.667969 269.09375 C 180.421875 273.535156 173.371094 278.296875 166.484375 283.273438 C 166.695312 283.414062 166.910156 283.542969 167.121094 283.679688 C 167.128906 283.683594 167.144531 283.691406 167.152344 283.691406 C 173.21875 279.324219 179.398438 275.121094 185.730469 271.160156 C 186.984375 270.371094 188.257812 269.613281 189.519531 268.851562 C 194.828125 272.332031 200.378906 275.460938 206.113281 278.191406 C 206.144531 278.164062 206.179688 278.140625 206.214844 278.113281 C 206.398438 277.972656 206.582031 277.824219 206.773438 277.679688 C 201.046875 274.984375 195.511719 271.890625 190.210938 268.433594 C 196.222656 264.820312 202.347656 261.390625 208.40625 257.847656 C 212.730469 255.3125 217.09375 252.671875 221.335938 249.84375 C 226.167969 251.40625 231.074219 252.757812 236.03125 253.882812 C 236.273438 253.675781 236.507812 253.46875 236.742188 253.265625 C 231.816406 252.164062 226.941406 250.84375 222.128906 249.304688 C 231.324219 243.089844 239.898438 235.898438 246.199219 226.757812 C 251.699219 226.824219 257.183594 226.539062 262.636719 225.839844 C 262.765625 225.589844 262.898438 225.339844 263.03125 225.089844 C 261.226562 225.332031 259.402344 225.53125 257.582031 225.683594 Z M 245.816406 226.046875 C 236.515625 225.875 227.234375 224.703125 218.078125 223.035156 C 219.425781 221.132812 220.667969 219.144531 221.761719 217.058594 C 223.3125 214.097656 224.558594 210.972656 225.289062 207.703125 C 225.90625 204.9375 226.515625 201.5 225.484375 198.761719 C 224.605469 196.386719 222.144531 194.691406 220.085938 193.171875 C 225.339844 191.632812 230.660156 190.332031 236.039062 189.289062 C 236.308594 189.523438 236.59375 189.75 236.875 189.980469 C 240.246094 192.820312 243.796875 195.625 246.742188 198.929688 C 249.902344 202.460938 251.691406 206.699219 251.414062 211.484375 C 251.15625 216.007812 249.320312 220.347656 247 224.179688 C 246.617188 224.8125 246.222656 225.4375 245.816406 226.046875 Z M 221.261719 249.027344 C 213.992188 246.664062 206.878906 243.8125 199.988281 240.496094 C 206.644531 235.773438 212.820312 230.269531 217.613281 223.695312 C 223.140625 224.703125 228.699219 225.546875 234.304688 226.105469 C 237.976562 226.464844 241.65625 226.683594 245.332031 226.75 C 239.160156 235.773438 230.457031 242.898438 221.261719 249.027344 Z M 209.308594 256.457031 C 202.734375 260.34375 196.0625 264.042969 189.519531 267.984375 C 183.917969 264.285156 178.578125 260.171875 173.5625 255.695312 C 181.148438 251.789062 188.726562 247.902344 195.753906 243.367188 C 196.949219 242.585938 198.132812 241.796875 199.308594 240.972656 C 206.15625 244.300781 213.238281 247.164062 220.476562 249.546875 C 216.777344 251.984375 213.019531 254.277344 209.308594 256.457031 Z M 219.371094 192.628906 C 219.347656 192.613281 219.324219 192.601562 219.308594 192.585938 C 216.628906 190.507812 213.863281 188.546875 211.050781 186.660156 C 206.945312 183.890625 202.75 181.261719 198.601562 178.574219 C 201.832031 175.074219 205.261719 171.753906 208.925781 168.648438 C 214.726562 172.652344 220.410156 176.820312 225.96875 181.144531 C 229.128906 183.613281 232.242188 186.136719 235.316406 188.703125 C 229.941406 189.757812 224.621094 191.066406 219.371094 192.628906 " fill-opacity="1" fill-rule="nonzero"/><path fill="#ffd3bd" d="M 191.28125 138.492188 C 191.28125 138.492188 190.890625 141.613281 189.355469 147.246094 C 188.359375 150.910156 186.882812 155.644531 184.707031 161.269531 C 184.472656 161.886719 184.222656 162.511719 183.976562 163.140625 C 182.035156 167.988281 179.613281 173.449219 176.574219 179.421875 C 176.457031 179.648438 176.34375 179.867188 176.226562 180.097656 C 175.925781 180.675781 175.625 181.253906 175.316406 181.84375 C 175.191406 182.085938 175.066406 182.328125 174.933594 182.578125 C 172.726562 186.746094 170.222656 191.152344 167.386719 195.765625 C 166.117188 197.820312 164.78125 199.921875 163.378906 202.066406 C 163.082031 202.519531 162.777344 202.976562 162.464844 203.4375 C 162.464844 203.4375 162.464844 203.445312 162.460938 203.445312 C 162.328125 203.648438 162.1875 203.855469 162.046875 204.0625 C 160.101562 206.984375 158.015625 209.964844 155.792969 213.019531 C 153.542969 216.105469 151.230469 219.195312 148.859375 222.285156 C 148.675781 222.527344 148.484375 222.769531 148.292969 223.019531 C 147.121094 224.546875 145.9375 226.066406 144.75 227.585938 C 144.578125 227.808594 144.410156 228.019531 144.234375 228.234375 C 143.398438 229.304688 142.546875 230.378906 141.691406 231.449219 C 141.449219 231.75 141.203125 232.058594 140.957031 232.367188 C 138.21875 235.78125 135.453125 239.167969 132.683594 242.5 C 132.476562 242.742188 132.28125 242.984375 132.074219 243.234375 C 130.011719 245.703125 127.953125 248.148438 125.90625 250.539062 C 125.738281 250.746094 125.5625 250.945312 125.382812 251.140625 C 123.644531 253.191406 121.902344 255.203125 120.179688 257.183594 C 119.929688 257.464844 119.6875 257.742188 119.445312 258.023438 C 118.054688 259.617188 116.675781 261.1875 115.316406 262.722656 C 115.097656 262.972656 114.882812 263.214844 114.671875 263.453125 C 110.023438 268.691406 105.582031 273.59375 101.496094 278.035156 C 101.292969 278.265625 101.085938 278.484375 100.878906 278.714844 C 100.125 279.527344 99.390625 280.320312 98.671875 281.097656 C 98.421875 281.363281 98.179688 281.628906 97.9375 281.886719 C 97.605469 282.246094 97.273438 282.597656 96.953125 282.941406 C 96.722656 283.191406 96.496094 283.433594 96.269531 283.679688 C 85.722656 294.976562 78.617188 302.109375 78.617188 302.109375 C 78.617188 302.109375 78.09375 301.902344 77.164062 301.503906 C 76.941406 301.414062 76.691406 301.3125 76.429688 301.195312 C 72.574219 299.558594 64.164062 295.800781 55.65625 290.792969 C 55.414062 290.644531 55.164062 290.496094 54.917969 290.359375 C 54.097656 289.867188 53.273438 289.359375 52.460938 288.847656 C 52.261719 288.71875 52.0625 288.597656 51.867188 288.464844 C 51.382812 288.164062 50.902344 287.855469 50.425781 287.546875 C 48.464844 286.261719 46.636719 284.96875 44.933594 283.679688 C 44.609375 283.433594 44.289062 283.191406 43.972656 282.941406 C 39.96875 279.851562 36.710938 276.839844 34.144531 274.210938 C 34.015625 274.082031 33.890625 273.945312 33.765625 273.824219 C 33.648438 273.699219 33.53125 273.574219 33.410156 273.449219 C 33.359375 273.398438 33.308594 273.34375 33.265625 273.292969 C 28.910156 268.707031 26.839844 265.503906 26.839844 265.503906 C 26.839844 265.503906 27.40625 264.761719 28.425781 263.453125 C 28.601562 263.226562 28.792969 262.984375 29 262.722656 C 30.113281 261.296875 31.621094 259.386719 33.410156 257.164062 C 33.648438 256.871094 33.898438 256.558594 34.144531 256.253906 C 36.863281 252.890625 40.160156 248.894531 43.722656 244.761719 C 43.875 244.578125 44.039062 244.386719 44.207031 244.203125 C 44.480469 243.878906 44.757812 243.558594 45.035156 243.234375 C 45.242188 242.992188 45.453125 242.75 45.667969 242.5 C 48.679688 239.054688 51.820312 235.574219 54.917969 232.335938 C 55.167969 232.089844 55.414062 231.832031 55.65625 231.582031 C 58.78125 228.351562 61.851562 225.398438 64.671875 223.019531 C 64.972656 222.761719 65.257812 222.519531 65.550781 222.285156 C 66.207031 221.75 66.851562 221.242188 67.46875 220.789062 C 67.675781 220.625 67.875 220.480469 68.070312 220.339844 C 68.617188 219.949219 69.144531 219.589844 69.65625 219.261719 C 71.839844 217.871094 74.101562 216.464844 76.429688 215 C 76.675781 214.847656 76.921875 214.695312 77.164062 214.539062 C 81.070312 212.074219 85.136719 209.429688 89.234375 206.390625 C 89.445312 206.226562 89.667969 206.066406 89.878906 205.90625 C 91.195312 204.914062 92.515625 203.878906 93.832031 202.800781 C 94.125 202.554688 94.410156 202.316406 94.703125 202.066406 C 95.785156 201.160156 96.863281 200.222656 97.9375 199.238281 C 98.179688 199.015625 98.429688 198.789062 98.671875 198.554688 C 102.824219 194.679688 106.894531 190.214844 110.726562 184.925781 C 110.867188 184.742188 111 184.550781 111.132812 184.363281 C 111.550781 183.78125 111.96875 183.1875 112.378906 182.578125 C 112.542969 182.335938 112.710938 182.085938 112.871094 181.84375 C 113.613281 180.726562 114.355469 179.574219 115.074219 178.386719 C 115.773438 177.238281 116.460938 176.058594 117.136719 174.839844 C 117.277344 174.589844 117.410156 174.347656 117.550781 174.105469 C 118.195312 172.945312 118.835938 171.828125 119.445312 170.757812 C 119.695312 170.328125 119.933594 169.917969 120.179688 169.507812 C 121.007812 168.082031 121.800781 166.746094 122.570312 165.492188 C 122.703125 165.277344 122.828125 165.066406 122.960938 164.859375 C 123.496094 163.984375 124.027344 163.148438 124.53125 162.355469 C 124.695312 162.105469 124.847656 161.855469 125.003906 161.621094 C 133.445312 148.566406 137.433594 146.453125 137.433594 146.453125 L 140.957031 145.929688 L 141.691406 145.820312 L 154.667969 143.902344 L 155.652344 143.757812 L 162.464844 142.75 L 163.199219 142.640625 L 169.949219 141.644531 L 170.734375 141.523438 L 183.976562 139.574219 L 184.707031 139.460938 L 191.28125 138.492188 " fill-opacity="1" fill-rule="nonzero"/><path fill="#1a1a1f" d="M 174.152344 186.101562 L 173.492188 185.777344 C 173.609375 185.546875 185.039062 162.40625 187.785156 151.335938 L 188.496094 151.511719 C 185.734375 162.660156 174.265625 185.871094 174.152344 186.101562 " fill-opacity="1" fill-rule="nonzero"/><path fill="#ffffff" d="M 144.6875 196.125 C 144.277344 196.75 143.867188 197.363281 143.449219 197.988281 C 136.746094 195.785156 130.148438 193.296875 123.6875 190.457031 C 127.507812 184.898438 131.25 179.296875 135.054688 173.75 C 135.671875 172.855469 136.289062 171.960938 136.90625 171.0625 C 139.328125 171.886719 141.765625 172.664062 144.226562 173.390625 C 147.992188 174.492188 151.796875 175.484375 155.625 176.367188 C 152.390625 183.148438 148.832031 189.78125 144.6875 196.125 Z M 124.445312 220.941406 C 118.320312 218.667969 112.269531 216.183594 106.292969 213.554688 C 108.148438 211.464844 109.949219 209.304688 111.691406 207.066406 C 115.722656 201.851562 119.546875 196.46875 123.292969 191.035156 C 129.738281 193.871094 136.339844 196.367188 143.050781 198.578125 C 137.523438 206.660156 131.214844 214.019531 124.445312 220.941406 Z M 103.097656 240.636719 C 97.328125 237.824219 91.652344 234.8125 86.085938 231.617188 C 93.398438 226.523438 99.910156 220.699219 105.800781 214.128906 C 111.753906 216.765625 117.777344 219.246094 123.863281 221.523438 C 117.277344 228.210938 110.257812 234.488281 103.097656 240.636719 Z M 77.023438 262.773438 C 76.089844 263.597656 75.15625 264.417969 74.234375 265.246094 C 67.46875 261.378906 61.074219 256.941406 54.832031 252.296875 C 63.960938 245.085938 74.234375 239.519531 83.917969 233.101562 C 84.433594 232.761719 84.929688 232.402344 85.4375 232.058594 C 91.027344 235.28125 96.710938 238.3125 102.503906 241.148438 C 94.03125 248.398438 85.386719 255.460938 77.023438 262.773438 Z M 170.734375 141.523438 C 174.929688 130.746094 179.230469 120.019531 184.46875 109.6875 C 184.679688 109.269531 184.046875 108.902344 183.828125 109.320312 C 178.527344 119.777344 174.195312 130.679688 169.949219 141.644531 C 165.5 153.105469 161.160156 164.625 155.933594 175.703125 C 149.652344 174.257812 143.441406 172.519531 137.324219 170.449219 C 143.433594 161.546875 149.542969 152.648438 155.652344 143.757812 C 158.148438 140.121094 160.636719 136.496094 163.136719 132.859375 C 163.398438 132.472656 162.769531 132.105469 162.503906 132.492188 C 159.890625 136.296875 157.273438 140.101562 154.667969 143.902344 C 149.015625 152.128906 143.367188 160.34375 137.726562 168.566406 C 137.355469 169.113281 136.988281 169.65625 136.613281 170.199219 C 132.25 168.699219 127.945312 167.039062 123.703125 165.191406 C 123.453125 165.078125 123.210938 164.976562 122.960938 164.859375 C 122.828125 165.066406 122.703125 165.277344 122.570312 165.492188 C 127.027344 167.460938 131.582031 169.230469 136.1875 170.820312 C 131.785156 177.253906 127.441406 183.738281 122.996094 190.148438 C 119.4375 188.570312 115.917969 186.871094 112.453125 185.058594 C 112.011719 184.832031 111.570312 184.597656 111.132812 184.363281 C 111 184.550781 110.867188 184.742188 110.726562 184.925781 C 114.613281 187.003906 118.578125 188.9375 122.601562 190.726562 C 119.789062 194.78125 116.9375 198.804688 114.015625 202.769531 C 111.335938 206.40625 108.539062 209.90625 105.585938 213.238281 C 102.597656 211.917969 99.632812 210.558594 96.6875 209.171875 C 94.410156 208.101562 92.140625 207.007812 89.878906 205.90625 C 89.667969 206.066406 89.445312 206.226562 89.234375 206.390625 C 94.46875 208.960938 99.75 211.449219 105.082031 213.8125 C 99.460938 220.097656 93.273438 225.789062 86.214844 230.664062 C 85.945312 230.855469 85.671875 231.03125 85.410156 231.214844 C 82.296875 229.421875 79.21875 227.574219 76.1875 225.65625 C 73.445312 223.929688 70.746094 222.152344 68.070312 220.339844 C 67.875 220.480469 67.675781 220.625 67.46875 220.789062 C 73.101562 224.621094 78.867188 228.246094 84.746094 231.664062 C 74.710938 238.433594 63.9375 244.117188 54.429688 251.65625 C 54.355469 251.714844 54.289062 251.773438 54.214844 251.832031 C 52.980469 250.90625 51.746094 249.980469 50.527344 249.050781 C 48.414062 247.441406 46.3125 245.820312 44.207031 244.203125 C 44.039062 244.386719 43.875 244.578125 43.722656 244.761719 C 47.019531 247.277344 50.308594 249.820312 53.628906 252.308594 C 46.027344 258.476562 39.457031 265.730469 33.265625 273.292969 C 33.308594 273.34375 33.359375 273.398438 33.410156 273.449219 C 33.53125 273.574219 33.648438 273.699219 33.765625 273.824219 C 39.140625 267.253906 44.792969 260.921875 51.183594 255.320312 C 52.179688 254.445312 53.210938 253.59375 54.246094 252.765625 C 59.988281 257.054688 65.839844 261.1875 72.027344 264.835938 C 72.566406 265.152344 73.109375 265.460938 73.652344 265.769531 C 65.839844 272.796875 58.363281 280.234375 51.867188 288.464844 C 52.0625 288.597656 52.261719 288.71875 52.460938 288.847656 C 58.964844 280.601562 66.425781 273.179688 74.277344 266.128906 C 82.773438 270.960938 91.722656 275.101562 100.878906 278.714844 C 101.085938 278.484375 101.292969 278.265625 101.496094 278.035156 C 92.546875 274.527344 83.726562 270.585938 75.332031 265.886719 C 75.171875 265.796875 75.011719 265.703125 74.847656 265.605469 C 84.109375 257.332031 93.890625 249.554688 103.304688 241.542969 C 110.53125 245.054688 117.894531 248.257812 125.382812 251.140625 C 125.5625 250.945312 125.738281 250.746094 125.90625 250.539062 C 118.445312 247.675781 111.101562 244.503906 103.914062 241.023438 C 105.933594 239.304688 107.929688 237.574219 109.898438 235.824219 C 114.964844 231.324219 119.929688 226.675781 124.671875 221.824219 C 131.105469 224.210938 137.625 226.375 144.234375 228.234375 C 144.410156 228.019531 144.578125 227.808594 144.75 227.585938 C 138.167969 225.738281 131.664062 223.601562 125.238281 221.234375 C 131.296875 214.988281 136.988281 208.386719 142.046875 201.292969 C 142.632812 200.472656 143.207031 199.640625 143.773438 198.8125 C 149.800781 200.773438 155.902344 202.511719 162.046875 204.0625 C 162.1875 203.855469 162.328125 203.648438 162.460938 203.445312 C 156.304688 201.902344 150.195312 200.175781 144.167969 198.222656 C 148.800781 191.324219 152.757812 184.023438 156.320312 176.527344 C 162.894531 178.023438 169.546875 179.199219 176.226562 180.097656 C 176.34375 179.867188 176.457031 179.648438 176.574219 179.421875 C 169.867188 178.53125 163.214844 177.355469 156.636719 175.867188 C 159.117188 170.578125 161.410156 165.191406 163.597656 159.773438 C 166.042969 153.722656 168.371094 147.613281 170.734375 141.523438 " fill-opacity="1" fill-rule="nonzero"/><path fill="#484859" d="M 179.761719 149.167969 C 175.273438 155.1875 170.675781 161.011719 164.375 165.25 C 158.355469 169.300781 151.378906 172.171875 144.511719 174.441406 C 135.027344 177.578125 124.957031 179.148438 115.074219 178.386719 C 115.773438 177.238281 116.460938 176.058594 117.136719 174.839844 C 117.277344 174.589844 117.410156 174.347656 117.550781 174.105469 C 125.78125 174.449219 134.085938 173.121094 142.089844 170.59375 C 148.683594 168.515625 155.285156 165.835938 161.136719 162.113281 C 167.253906 158.214844 171.667969 152.699219 175.957031 146.945312 C 177.628906 144.699219 181.457031 146.894531 179.761719 149.167969 " fill-opacity="1" fill-rule="nonzero"/><path fill="#ffffff" d="M 134.136719 136.140625 C 134.136719 136.140625 140.5 160.519531 143.683594 165.414062 C 146.867188 170.308594 180.398438 160.371094 189.945312 150.777344 C 199.492188 141.183594 134.136719 136.140625 134.136719 136.140625 " fill-opacity="1" fill-rule="nonzero"/><path fill="#fd9879" d="M 357.960938 54.660156 L 348.402344 56.476562 C 345.851562 64.265625 341.160156 78.027344 339.75 78.027344 C 339.058594 78.027344 333.097656 78.277344 325.652344 78.597656 C 311.914062 79.1875 293.113281 80.03125 293.113281 80.03125 L 261.046875 80.03125 L 243.425781 79.613281 L 237.917969 80.03125 L 213.203125 73.0625 L 218.171875 67.511719 C 218.171875 67.511719 230.492188 62.746094 250.054688 65.039062 C 261.828125 66.417969 275.890625 63.253906 288.222656 63.378906 C 298.800781 63.488281 308.25 66.492188 314.910156 66.660156 C 320.09375 66.792969 323.441406 66.9375 323.957031 67.117188 C 325.621094 67.683594 326.253906 68.644531 326.476562 69.363281 L 326.480469 69.375 C 326.648438 69.914062 326.597656 70.316406 326.597656 70.316406 L 338.765625 70.316406 C 338.765625 70.316406 343.789062 50.601562 346.476562 48.640625 C 347.402344 47.964844 348.121094 48.074219 348.65625 48.5 C 349.054688 47.585938 350.042969 46.105469 351.84375 46.402344 C 353.992188 46.757812 354.003906 49.039062 354.003906 49.039062 C 354.003906 49.039062 355.171875 47.753906 356.757812 48.730469 C 358.351562 49.707031 357.960938 54.660156 357.960938 54.660156 " fill-opacity="1" fill-rule="nonzero"/><path fill="#d97648" d="M 324.328125 80.390625 C 310.589844 80.980469 293.113281 80.03125 293.113281 80.03125 L 261.046875 80.03125 L 243.425781 79.613281 L 237.917969 80.03125 L 213.203125 73.0625 L 218.171875 67.511719 C 218.171875 67.511719 230.492188 62.746094 250.054688 65.039062 C 261.828125 66.417969 275.890625 63.253906 288.222656 63.378906 C 298.800781 63.488281 308.25 66.492188 314.910156 66.660156 C 320.09375 66.792969 323.441406 66.9375 323.957031 67.117188 C 325.621094 67.683594 326.253906 68.644531 326.476562 69.363281 L 326.480469 69.375 L 326.597656 70.316406 C 326.597656 70.316406 325.523438 76.515625 324.328125 80.390625 " fill-opacity="1" fill-rule="nonzero"/><path fill="#1a1a1f" d="M 228.25 67.085938 C 228.25 67.085938 230.902344 67.175781 236.960938 68.921875 C 243.019531 70.664062 247.792969 70.292969 253.527344 70.15625 C 259.265625 70.023438 265.75 71.253906 265.75 71.253906 C 265.75 71.253906 255.730469 72.152344 252.195312 72.535156 C 248.664062 72.914062 240.859375 72.535156 240.859375 72.535156 C 240.859375 72.535156 225.578125 71.675781 225.625 71.492188 C 225.671875 71.308594 228.25 67.085938 228.25 67.085938 " fill-opacity="1" fill-rule="nonzero"/><path fill="#1a1a1f" d="M 209.480469 61.519531 C 209.480469 61.519531 197.902344 58.949219 188.480469 58.644531 C 179.058594 58.335938 200.902344 71.125 200.902344 71.125 L 215.957031 68.285156 L 215.648438 62 L 209.480469 61.519531 " fill-opacity="1" fill-rule="nonzero"/><g clip-path="url(#194fc51479)"><path fill="#fd9879" d="M 357.253906 72.195312 C 357.253906 72.195312 359.363281 67.148438 361.75 66.503906 C 364.136719 65.863281 365.699219 67.503906 363.21875 73.199219 C 360.738281 78.894531 358.222656 95.109375 350.039062 97.75 C 344.128906 99.652344 357.253906 72.195312 357.253906 72.195312 " fill-opacity="1" fill-rule="nonzero"/></g><path fill="#fd9879" d="M 319.597656 76.332031 L 304.589844 101.546875 L 345.675781 98.609375 L 345.203125 89.742188 L 340.074219 77.230469 L 319.597656 76.332031 " fill-opacity="1" fill-rule="nonzero"/><path fill="#fd9879" d="M 229.390625 63.917969 C 229.378906 64.328125 229.371094 64.726562 229.324219 65.097656 C 229.324219 65.203125 229.316406 65.3125 229.304688 65.414062 C 229.296875 65.488281 229.289062 65.554688 229.28125 65.628906 C 229.273438 65.722656 229.265625 65.824219 229.25 65.921875 C 229.230469 66.097656 229.207031 66.273438 229.1875 66.441406 C 229.179688 66.507812 229.171875 66.574219 229.15625 66.640625 C 229.132812 66.832031 229.097656 67.015625 229.0625 67.199219 C 229.050781 67.273438 229.046875 67.339844 229.023438 67.414062 C 228.988281 67.597656 228.953125 67.78125 228.898438 67.949219 C 228.890625 67.976562 228.882812 68.015625 228.878906 68.042969 C 228.847656 68.207031 228.804688 68.351562 228.761719 68.5 C 227.902344 71.371094 226.144531 73.066406 223.316406 72.382812 C 219.449219 71.464844 213.558594 66.910156 213.558594 66.910156 C 213.558594 66.910156 211.539062 63.566406 211.210938 60.378906 C 210.511719 53.371094 217.921875 50.089844 223.070312 49.570312 C 228.214844 49.046875 228.53125 53.269531 229.242188 60.273438 C 229.371094 61.53125 229.421875 62.761719 229.390625 63.917969 " fill-opacity="1" fill-rule="nonzero"/><path fill="#fd9879" d="M 222.597656 70.148438 L 219.828125 72.648438 L 214.914062 77.082031 L 214.46875 77.484375 L 210.164062 76.648438 C 210.164062 76.648438 204.953125 71.53125 204.847656 71.324219 C 204.847656 71.222656 206.558594 70.019531 208.644531 68.585938 C 208.660156 68.578125 208.667969 68.570312 208.667969 68.570312 C 210.171875 67.542969 211.867188 66.398438 213.265625 65.464844 C 214.894531 64.371094 216.105469 63.5625 216.105469 63.5625 L 222.597656 70.148438 " fill-opacity="1" fill-rule="nonzero"/><path fill="#b35a2e" d="M 209.535156 60.453125 L 212.917969 65.714844 L 218.101562 59.929688 Z M 209.535156 60.453125 " fill-opacity="1" fill-rule="nonzero"/><path fill="#fd9879" d="M 228.070312 59.199219 C 228.511719 59.648438 228.941406 60.105469 229.367188 60.570312 C 229.710938 60.949219 230.054688 61.332031 230.382812 61.726562 C 230.785156 62.210938 231.332031 62.6875 231.265625 63.378906 C 231.148438 64.632812 229.378906 64.960938 228.378906 64.738281 C 226.371094 64.289062 228.070312 59.199219 228.070312 59.199219 " fill-opacity="1" fill-rule="nonzero"/><path fill="#1a1a1f" d="M 228.085938 60.019531 C 228 60.695312 227.609375 61.203125 227.210938 61.15625 C 226.808594 61.105469 226.554688 60.515625 226.636719 59.839844 C 226.722656 59.164062 227.113281 58.65625 227.515625 58.703125 C 227.914062 58.753906 228.171875 59.34375 228.085938 60.019531 " fill-opacity="1" fill-rule="nonzero"/><path fill="#b35a2e" d="M 227.769531 56.167969 C 227.15625 55.890625 226.464844 55.957031 225.910156 56.328125 C 225.488281 56.605469 223.878906 58.078125 225.097656 58.335938 C 225.257812 58.371094 225.421875 58.355469 225.585938 58.339844 C 226.355469 58.265625 227.125 58.1875 227.894531 58.113281 C 228.230469 58.082031 228.476562 57.960938 228.550781 57.613281 C 228.695312 56.914062 228.3125 56.414062 227.769531 56.167969 " fill-opacity="1" fill-rule="nonzero"/><path fill="#b35a2e" d="M 228.25 53.355469 C 228.253906 53.398438 226.820312 54.195312 226.722656 54.265625 C 225.589844 55.0625 224.578125 56.039062 223.78125 57.175781 C 223.226562 57.964844 222.777344 58.832031 222.476562 59.75 C 221.9375 61.375 221.667969 63.199219 219.839844 63.855469 C 218.558594 64.3125 217.082031 64.050781 215.847656 63.5625 C 214.15625 62.902344 213.941406 61.796875 212.199219 62.535156 C 211.367188 62.882812 210.363281 63.207031 209.457031 63.070312 C 208.820312 62.976562 208.324219 62.597656 208.082031 62.007812 C 207.878906 61.507812 207.851562 60.84375 207.195312 60.730469 C 205.304688 60.410156 204.5625 58.425781 205.703125 57.210938 C 206.566406 56.292969 208.011719 55.929688 209.214844 55.769531 C 209.214844 55.769531 212.742188 47.632812 218.113281 47.738281 C 221.816406 47.808594 227.675781 48.847656 228.25 53.355469 " fill-opacity="1" fill-rule="nonzero"/><path fill="#1a1a1f" d="M 220.695312 71.078125 C 219.960938 70.535156 219.277344 69.921875 218.640625 69.261719 C 218.316406 68.917969 217.796875 69.4375 218.121094 69.78125 C 218.800781 70.488281 219.539062 71.128906 220.324219 71.710938 C 220.707031 71.992188 221.074219 71.359375 220.695312 71.078125 " fill-opacity="1" fill-rule="nonzero"/><path fill="#ffffff" d="M 229.28125 65.628906 C 229.273438 65.722656 229.265625 65.824219 229.25 65.921875 C 229.230469 66.097656 229.207031 66.273438 229.1875 66.441406 C 229.179688 66.507812 229.171875 66.574219 229.15625 66.640625 C 229.132812 66.832031 229.097656 67.015625 229.0625 67.199219 C 229.050781 67.273438 229.046875 67.339844 229.023438 67.414062 C 228.988281 67.597656 228.953125 67.78125 228.898438 67.949219 C 228.890625 67.976562 228.882812 68.015625 228.878906 68.042969 C 227.21875 67.101562 225.726562 64.9375 226.425781 64.585938 C 227.210938 64.1875 228.839844 65.304688 229.28125 65.628906 " fill-opacity="1" fill-rule="nonzero"/><path fill="#484859" d="M 208.941406 55.746094 C 210.054688 56.554688 212.203125 56.140625 213.371094 56.167969 C 216.097656 56.238281 218.828125 56.167969 221.542969 55.914062 C 226.703125 55.175781 229.222656 55.359375 229.59375 53.984375 C 229.964844 52.609375 229.550781 50.445312 228.683594 49.945312 C 228.078125 49.597656 227.027344 49.867188 226.394531 49.9375 C 224.875 50.109375 223.367188 50.363281 221.859375 50.589844 C 218.453125 51.097656 215.09375 51.480469 211.652344 51.175781 C 210.582031 51.078125 208.738281 50.757812 208.261719 52.160156 C 208 52.933594 208.109375 53.996094 208.300781 54.769531 C 208.410156 55.210938 208.636719 55.523438 208.941406 55.746094 " fill-opacity="1" fill-rule="nonzero"/><path fill="#484859" d="M 228.371094 50.210938 C 228.371094 50.210938 222.625 41.984375 218.574219 42.246094 C 215.914062 42.417969 216.421875 43.484375 214.878906 43.964844 C 213.339844 44.445312 212.4375 43.894531 211.152344 45.613281 C 209.867188 47.328125 209.480469 51.585938 209.480469 51.585938 L 213.105469 53.308594 L 222.855469 53.308594 L 228.371094 50.210938 " fill-opacity="1" fill-rule="nonzero"/><path fill="#1a1a1f" d="M 209.949219 51.507812 C 209.75 51.507812 209.585938 51.347656 209.582031 51.144531 C 209.578125 50.941406 209.738281 50.777344 209.941406 50.773438 C 209.992188 50.769531 214.855469 50.675781 219.878906 50.269531 C 224.894531 49.863281 227.679688 49.417969 227.707031 49.414062 C 227.910156 49.378906 228.097656 49.519531 228.128906 49.714844 C 228.160156 49.917969 228.023438 50.105469 227.824219 50.140625 C 227.796875 50.140625 224.988281 50.589844 219.9375 51 C 214.890625 51.410156 210.003906 51.503906 209.957031 51.507812 C 209.953125 51.507812 209.953125 51.507812 209.949219 51.507812 " fill-opacity="1" fill-rule="nonzero"/><path fill="#d97648" d="M 218.976562 73.019531 C 218.976562 73.019531 216.390625 71.128906 206.222656 65.40625 C 196.058594 59.683594 183.9375 55.519531 178.015625 56.5625 C 172.09375 57.601562 176.777344 60.601562 173.335938 65.40625 C 169.890625 70.207031 167.964844 73.386719 171.542969 75.46875 C 175.125 77.550781 191.101562 72.777344 201.429688 74.246094 C 211.757812 75.714844 218.730469 78.40625 219.925781 76.570312 C 221.125 74.734375 218.976562 73.019531 218.976562 73.019531 " fill-opacity="1" fill-rule="nonzero"/><path fill="#ffffff" d="M 222.738281 73.355469 C 219.835938 70.269531 214.09375 68.613281 209.832031 68.214844 C 206.875 67.9375 204.714844 67.175781 202.203125 65.601562 C 200.507812 64.542969 198.992188 63.53125 197.097656 62.867188 C 196.207031 62.558594 195.65625 63.917969 196.550781 64.230469 C 200.171875 65.492188 202.882812 68.4375 206.675781 69.296875 C 208.433594 69.699219 210.269531 69.65625 212.050781 69.929688 C 215.171875 70.410156 217.902344 71.539062 220.570312 73.207031 C 221.367188 73.707031 223.386719 74.046875 222.738281 73.355469 " fill-opacity="1" fill-rule="nonzero"/><path fill="#d97648" d="M 312.191406 104.351562 C 309.988281 107.285156 299.710938 105.820312 299.710938 105.820312 C 296.425781 110.398438 290.691406 114.027344 285.199219 115.019531 C 281.980469 115.605469 278.691406 115.65625 275.449219 116.089844 C 269.375 116.898438 264.699219 120.085938 258.957031 121.605469 C 242.324219 126.011719 229.730469 122.097656 229.730469 122.097656 C 229.730469 122.097656 227.535156 124.867188 224.074219 128.71875 C 223.855469 128.960938 223.636719 129.203125 223.40625 129.460938 C 220.308594 132.867188 216.335938 137 212.054688 140.792969 C 209.644531 142.921875 207.148438 144.941406 204.667969 146.664062 C 204.300781 146.921875 203.933594 147.171875 203.566406 147.414062 C 201.871094 148.523438 200.195312 149.484375 198.558594 150.242188 C 184.605469 156.664062 156.335938 155.75 139.078125 150.242188 C 133.285156 148.390625 124.710938 144.785156 125.90625 137.207031 C 127.800781 125.164062 139.425781 116.875 148.949219 110.90625 C 151.128906 109.539062 153.398438 108.101562 154.675781 105.867188 C 155.710938 104.0625 155.984375 101.941406 156.410156 99.898438 C 158.382812 90.4375 183.007812 72.433594 188.277344 72.402344 C 191.304688 72.390625 198.914062 70.574219 198.914062 70.574219 C 198.914062 70.574219 210.121094 70.355469 216.707031 70.523438 C 228.578125 70.820312 241.199219 72.933594 253.242188 72.324219 C 266.890625 71.632812 279.046875 68.757812 294.011719 70.996094 C 303.371094 72.394531 309.0625 74.84375 313.328125 74.761719 C 322.636719 74.585938 322.203125 74.328125 323.464844 75.714844 C 325.300781 77.734375 314.394531 101.414062 312.191406 104.351562 " fill-opacity="1" fill-rule="nonzero"/><path fill="#fd9879" d="M 342.546875 66.246094 C 343.4375 62.632812 344.210938 58.980469 345.214844 55.40625 C 345.816406 53.269531 347.441406 50.886719 349.378906 51.988281 C 349.378906 51.988281 350.007812 48.589844 352.203125 48.46875 C 354.402344 48.347656 354.402344 51.484375 354.402344 51.484375 C 354.402344 51.484375 357.621094 50.351562 358.234375 52.742188 C 358.898438 55.335938 358.5625 58.46875 358.464844 61.140625 C 358.347656 64.261719 358.113281 67.375 357.824219 70.480469 C 357.257812 76.523438 356.523438 82.589844 355.359375 88.523438 C 354.996094 90.382812 354.699219 92.699219 353.761719 94.3125 C 352.433594 96.609375 351.148438 97.492188 348.9375 98.117188 C 347.855469 98.421875 345.675781 98.609375 345.675781 98.609375 L 335.347656 94.3125 C 336.089844 90.617188 336.84375 86.917969 337.570312 83.21875 C 337.878906 81.644531 341.765625 69.410156 342.546875 66.246094 " fill-opacity="1" fill-rule="nonzero"/><path fill="#1a1a1f" d="M 356.492188 79.476562 C 356.472656 79.476562 356.453125 79.476562 356.433594 79.472656 C 356.230469 79.4375 356.097656 79.25 356.128906 79.050781 L 357.355469 71.523438 C 357.390625 71.320312 357.582031 71.183594 357.777344 71.21875 C 357.976562 71.25 358.113281 71.441406 358.082031 71.640625 L 356.855469 79.171875 C 356.824219 79.351562 356.667969 79.476562 356.492188 79.476562 " fill-opacity="1" fill-rule="nonzero"/><path fill="#1a1a1f" d="M 347.175781 71 C 347.144531 71 347.113281 70.996094 347.082031 70.992188 C 346.886719 70.941406 346.769531 70.742188 346.820312 70.542969 C 346.828125 70.507812 347.75 66.929688 349.082031 60.765625 C 350.371094 54.773438 349.132812 52.300781 349.125 52.273438 C 349.03125 52.09375 349.097656 51.875 349.277344 51.78125 C 349.453125 51.683594 349.675781 51.75 349.769531 51.929688 C 349.828125 52.039062 351.15625 54.621094 349.796875 60.925781 C 348.464844 67.097656 347.539062 70.691406 347.53125 70.726562 C 347.488281 70.894531 347.339844 71 347.175781 71 " fill-opacity="1" fill-rule="nonzero"/><path fill="#1a1a1f" d="M 352.269531 71 C 352.25 71 352.226562 71 352.207031 70.996094 C 352.007812 70.964844 351.871094 70.773438 351.90625 70.574219 C 351.921875 70.484375 353.378906 61.726562 353.859375 58.046875 C 354.339844 54.40625 354.042969 51.550781 354.035156 51.519531 C 354.015625 51.320312 354.160156 51.140625 354.363281 51.117188 C 354.5625 51.097656 354.746094 51.242188 354.769531 51.445312 C 354.78125 51.5625 355.078125 54.40625 354.589844 58.136719 C 354.105469 61.835938 352.644531 70.605469 352.628906 70.695312 C 352.601562 70.875 352.445312 71 352.269531 71 " fill-opacity="1" fill-rule="nonzero"/><path fill="#1a1a1f" d="M 337.296875 85.0625 C 337.265625 85.0625 337.230469 85.058594 337.199219 85.050781 C 337.003906 84.996094 336.890625 84.796875 336.941406 84.601562 L 338.960938 77.101562 C 339.015625 76.910156 339.21875 76.792969 339.410156 76.84375 C 339.605469 76.898438 339.722656 77.097656 339.667969 77.292969 L 337.648438 84.792969 C 337.605469 84.957031 337.460938 85.0625 337.296875 85.0625 " fill-opacity="1" fill-rule="nonzero"/><path fill="#1a1a1f" d="M 345.675781 97.636719 C 345.550781 97.636719 345.425781 97.574219 345.359375 97.457031 C 345.253906 97.28125 345.3125 97.058594 345.488281 96.953125 C 348.28125 95.300781 349.617188 91.707031 349.933594 88.894531 C 350.289062 85.734375 349.390625 82.441406 347.460938 79.867188 C 347.339844 79.703125 347.375 79.476562 347.535156 79.355469 C 347.695312 79.234375 347.929688 79.261719 348.050781 79.429688 C 350.089844 82.148438 351.042969 85.632812 350.664062 88.980469 C 350.226562 92.847656 348.433594 96.066406 345.863281 97.585938 C 345.804688 97.621094 345.738281 97.636719 345.675781 97.636719 " fill-opacity="1" fill-rule="nonzero"/><path fill="#1a1a1f" d="M 179.910156 173.371094 C 179.679688 173.964844 175.117188 186.886719 171.101562 198.363281 C 169.890625 197.585938 168.6875 196.75 167.488281 195.851562 C 167.488281 195.84375 167.488281 195.84375 167.488281 195.84375 C 167.476562 195.699219 167.46875 195.625 167.46875 195.625 L 179.910156 173.371094 " fill-opacity="1" fill-rule="nonzero"/><path fill="#1a1a1f" d="M 202.132812 208.980469 C 201.964844 208.980469 201.8125 208.863281 201.773438 208.691406 C 201.734375 208.492188 201.859375 208.296875 202.058594 208.253906 L 218.507812 204.765625 C 218.703125 204.726562 218.898438 204.851562 218.941406 205.050781 C 218.984375 205.25 218.859375 205.441406 218.660156 205.484375 L 202.210938 208.972656 C 202.183594 208.980469 202.160156 208.980469 202.132812 208.980469 " fill-opacity="1" fill-rule="nonzero"/><path fill="#1a1a1f" d="M 181.988281 75.59375 C 181.867188 75.59375 181.746094 75.53125 181.675781 75.417969 C 181.570312 75.246094 181.625 75.019531 181.796875 74.914062 C 181.902344 74.847656 192.363281 68.558594 211.761719 70.160156 C 211.960938 70.175781 212.113281 70.351562 212.09375 70.554688 C 212.078125 70.757812 211.886719 70.90625 211.699219 70.890625 C 192.53125 69.304688 182.285156 75.472656 182.183594 75.535156 C 182.121094 75.574219 182.054688 75.59375 181.988281 75.59375 " fill-opacity="1" fill-rule="nonzero"/><path fill="#1a1a1f" d="M 231.273438 120.410156 C 231.199219 120.410156 231.125 120.386719 231.0625 120.34375 C 230.894531 120.222656 230.855469 119.996094 230.972656 119.832031 C 231.121094 119.621094 245.878906 98.988281 258.980469 88.175781 C 259.136719 88.046875 259.367188 88.066406 259.496094 88.222656 C 259.625 88.378906 259.605469 88.613281 259.449219 88.742188 C 246.417969 99.496094 231.71875 120.050781 231.570312 120.257812 C 231.5 120.359375 231.386719 120.410156 231.273438 120.410156 " fill-opacity="1" fill-rule="nonzero"/><path fill="#1a1a1f" d="M 155.625 106.164062 C 155.476562 106.164062 155.339844 106.078125 155.28125 105.933594 C 155.207031 105.742188 155.300781 105.53125 155.488281 105.457031 L 173.6875 98.269531 C 173.875 98.195312 174.089844 98.285156 174.164062 98.472656 C 174.238281 98.664062 174.148438 98.878906 173.957031 98.953125 L 155.757812 106.136719 C 155.714844 106.15625 155.667969 106.164062 155.625 106.164062 " fill-opacity="1" fill-rule="nonzero"/><path fill="#1a1a1f" d="M 300.273438 104.617188 C 300.21875 104.617188 300.160156 104.605469 300.105469 104.578125 C 299.925781 104.484375 299.855469 104.261719 299.949219 104.082031 C 300.050781 103.886719 310.082031 84.546875 312.976562 74.660156 C 313.035156 74.46875 313.234375 74.351562 313.433594 74.410156 C 313.625 74.46875 313.738281 74.671875 313.679688 74.867188 C 310.765625 84.824219 300.703125 104.226562 300.601562 104.421875 C 300.535156 104.546875 300.40625 104.617188 300.273438 104.617188 " fill-opacity="1" fill-rule="nonzero"/><path fill="#1a1a1f" d="M 213.367188 128.253906 C 213.367188 128.253906 212.496094 129.753906 212.289062 130.082031 C 211.136719 131.875 209.835938 133.554688 208.5 135.210938 C 204.40625 140.289062 199.453125 145.640625 192.855469 146.9375 C 192.855469 146.9375 188.894531 146.207031 195.082031 140.078125 C 200.484375 134.730469 213.367188 128.253906 213.367188 128.253906 " fill-opacity="1" fill-rule="nonzero"/><path fill="#1a1a1f" d="M 224.074219 128.71875 C 223.855469 128.960938 223.636719 129.203125 223.40625 129.460938 C 218.605469 129.453125 212.878906 129.078125 212.5625 129.050781 L 213.367188 128.25 C 213.449219 128.257812 219.039062 128.75 224.074219 128.71875 " fill-opacity="1" fill-rule="nonzero"/><path fill="#1a1a1f" d="M 204.667969 146.664062 C 204.300781 146.921875 203.933594 147.171875 203.566406 147.414062 L 203.140625 147.414062 C 198.292969 147.414062 193.175781 146.964844 192.851562 146.9375 L 192.917969 146.210938 C 193.007812 146.21875 199.394531 146.777344 204.667969 146.664062 " fill-opacity="1" fill-rule="nonzero"/><path fill="#d97648" d="M 223.40625 129.460938 C 223.40625 129.460938 218.261719 137.117188 214.222656 142.394531 C 210.183594 147.671875 204.667969 146.664062 204.667969 146.664062 L 209.632812 138.859375 L 223.40625 129.460938 " fill-opacity="1" fill-rule="nonzero"/><path fill="#1a1a1f" d="M 339.316406 77.566406 C 339.308594 77.566406 339.300781 77.566406 339.292969 77.566406 L 323.644531 76.699219 C 323.441406 76.6875 323.285156 76.515625 323.296875 76.3125 C 323.308594 76.109375 323.488281 75.949219 323.683594 75.964844 L 339.035156 76.8125 C 339.726562 74.195312 344.492188 56.191406 345.15625 54.421875 C 345.898438 52.449219 346.433594 52.074219 347.113281 51.757812 C 347.914062 51.382812 348.695312 51.484375 349.164062 51.613281 C 349.386719 50.554688 350.125 47.972656 352.140625 48.113281 C 353.835938 48.222656 354.523438 49.753906 354.710938 50.84375 C 355.167969 50.722656 355.898438 50.601562 356.539062 50.8125 C 357.433594 51.109375 357.691406 51.339844 357.765625 51.425781 C 357.890625 51.582031 357.871094 51.8125 357.710938 51.941406 C 357.558594 52.070312 357.328125 52.050781 357.195312 51.890625 C 357.195312 51.890625 357.199219 51.894531 357.195312 51.894531 C 357.191406 51.894531 356.988281 51.734375 356.308594 51.511719 C 355.683594 51.304688 354.816406 51.554688 354.535156 51.667969 C 354.421875 51.714844 354.300781 51.703125 354.199219 51.636719 C 354.101562 51.574219 354.035156 51.464844 354.03125 51.347656 C 354.023438 51.25 353.882812 48.960938 352.09375 48.84375 C 352.0625 48.84375 352.03125 48.84375 352.003906 48.84375 C 350.292969 48.84375 349.816406 52.121094 349.8125 52.152344 C 349.792969 52.269531 349.722656 52.371094 349.621094 52.425781 C 349.515625 52.484375 349.390625 52.484375 349.285156 52.433594 C 349.277344 52.429688 348.34375 51.992188 347.421875 52.421875 C 346.96875 52.636719 346.535156 52.835938 345.84375 54.679688 C 345.15625 56.511719 339.726562 77.082031 339.671875 77.292969 C 339.625 77.453125 339.480469 77.566406 339.316406 77.566406 " fill-opacity="1" fill-rule="nonzero"/><path fill="#1a1a1f" d="M 314.660156 75.058594 C 314.625 75.058594 314.589844 75.054688 314.554688 75.042969 C 314.359375 74.984375 314.25 74.78125 314.304688 74.585938 C 315.691406 69.902344 316.3125 66.921875 316.320312 66.890625 C 316.359375 66.691406 316.558594 66.5625 316.753906 66.605469 C 316.953125 66.648438 317.078125 66.839844 317.039062 67.039062 C 317.03125 67.070312 316.40625 70.078125 315.011719 74.792969 C 314.960938 74.953125 314.816406 75.058594 314.660156 75.058594 " fill-opacity="1" fill-rule="nonzero"/><path fill="#1a1a1f" d="M 323.664062 76.699219 C 323.484375 76.699219 323.328125 76.566406 323.300781 76.382812 C 323.019531 74.425781 319.300781 74.761719 317.085938 74.964844 C 316.5625 75.007812 316.109375 75.050781 315.773438 75.058594 C 311.476562 75.140625 307.304688 74.207031 303.273438 73.296875 C 300.929688 72.769531 298.507812 72.226562 296.089844 71.886719 C 291.21875 71.210938 286.007812 70.578125 280.878906 70.523438 C 277.742188 70.492188 266.902344 71.507812 258.960938 72.246094 C 256.117188 72.511719 253.585938 72.746094 251.816406 72.898438 C 245.027344 73.480469 229.039062 71.328125 228.878906 71.304688 C 228.679688 71.277344 228.539062 71.09375 228.566406 70.890625 C 228.59375 70.691406 228.769531 70.550781 228.980469 70.578125 C 229.140625 70.597656 245.042969 72.742188 251.753906 72.167969 C 253.523438 72.015625 256.050781 71.78125 258.894531 71.515625 C 266.847656 70.773438 277.722656 69.78125 280.886719 69.789062 C 286.058594 69.84375 291.296875 70.480469 296.191406 71.164062 C 298.640625 71.503906 301.078125 72.050781 303.4375 72.582031 C 307.425781 73.480469 311.539062 74.417969 315.761719 74.324219 C 316.082031 74.316406 316.515625 74.277344 317.019531 74.230469 C 319.5 74.007812 323.648438 73.628906 324.027344 76.28125 C 324.054688 76.480469 323.917969 76.667969 323.714844 76.695312 C 323.699219 76.699219 323.679688 76.699219 323.664062 76.699219 " fill-opacity="1" fill-rule="nonzero"/></svg>